<?xml version="1.0" encoding="utf-8"?>
<!-- Generator: Adobe Illustrator 27.8.1, SVG Export Plug-In . SVG Version: 6.00 Build 0)  -->
<svg version="1.1" id="Layer_1" xmlns="http://www.w3.org/2000/svg" xmlns:xlink="http://www.w3.org/1999/xlink" x="0px" y="0px"
	 viewBox="0 0 800 524.88" style="enable-background:new 0 0 800 524.88;" xml:space="preserve">
<style type="text/css">
	.st0{fill:#4FA7EB;}
	.st1{fill:#DFC5FE;}
	.st2{fill:#232649;}
	.st3{fill:#FFFCF7;}
</style>
<g>
	<g>
		<rect x="432.16" y="165.16" class="st0" width="5.53" height="237.6"/>
	</g>
	<g>
		<g id="_x3C_Radial_Repeat_x3E__00000050664652677268837530000017085532981165342345_">
			<g>
				<path class="st1" d="M376.59,288.33c-5.98-20.75-21.48-36.91-41.7-44.29c-19.1-6.98-41.73-4.2-58.28,7.73
					c-16.91,12.19-29.15,30.88-32.54,51.59c-1.73,10.55-1.75,21.36,1.37,31.69c3.12,10.34,8.77,20.37,17.09,27.41
					c8.85,7.49,20,12.76,31.83,12.39c11.69-0.37,23.37-5.41,31.09-14.35c7.29-8.44,11.57-18.98,11.71-30.2
					c0.15-11.73-4-22.42-11.04-31.63c-12.11-15.86-31.93-24.4-51.31-26.71c-19.86-2.37-39.95,3.59-54.5,17.44
					c-13.7,13.04-21.85,32.11-21.46,51.06c0.2,9.88,2.45,19.39,6.71,28.3c4.48,9.37,11.5,17.11,19.68,23.39
					c4.99,3.83,10.51,6.59,16.32,8.95c2.65,1.08,6.64,0.32,9.03-1.02c2.45-1.38,4.8-4.12,5.49-6.9c1.65-6.67-1.85-12.05-7.92-14.52
					c-0.24-0.1-0.47-0.19-0.71-0.29c-1.15-0.49-0.94-0.39,0.64,0.29c-0.39-0.26-0.94-0.45-1.38-0.66c-1.14-0.56-2.26-1.17-3.36-1.81
					c-1.1-0.64-2.17-1.32-3.23-2.03c-0.63-0.43-1.25-0.87-1.87-1.32c-0.72-0.53-2.16-1.97,0.45,0.39c-3.03-2.74-5.88-5.41-8.49-8.57
					c-1.16-1.4,0.8,1.09,0.8,1.1c-0.37-0.38-0.67-0.92-0.97-1.36c-0.52-0.76-1.02-1.53-1.5-2.31c-1-1.63-1.91-3.31-2.72-5.04
					c-0.38-0.82-0.72-1.65-1.09-2.47c-0.62-1.38,1.16,3.15,0.47,1.16c-0.15-0.42-0.3-0.84-0.45-1.27c-0.6-1.78-1.11-3.58-1.53-5.41
					c-0.39-1.74-0.68-3.49-0.93-5.26c-0.3-2.16,0.27,3.17,0.12,1c-0.02-0.35-0.06-0.71-0.08-1.06c-0.07-1.07-0.11-2.13-0.13-3.2
					c-0.02-1.78,0.05-3.56,0.19-5.34c0.07-0.89,0.17-1.78,0.28-2.66c0.05-0.35,0.11-0.71,0.15-1.06c-0.44,4-0.2,1.29-0.02,0.35
					c0.71-3.62,1.77-7.16,3.15-10.58c0.17-0.42,0.36-0.83,0.52-1.25c-1.28,3.27-0.81,1.79-0.42,1c0.36-0.73,0.71-1.47,1.09-2.2
					c0.93-1.78,1.96-3.51,3.07-5.18c0.51-0.77,1.04-1.52,1.58-2.26c0.32-0.43,0.63-0.94,1.01-1.32c-0.01,0.01-1.99,2.4-0.81,1.04
					c1.35-1.56,2.71-3.09,4.19-4.53c1.36-1.33,2.8-2.58,4.28-3.77c0.3-0.24,0.62-0.46,0.91-0.71c-2.8,2.37-1.29,0.96-0.55,0.44
					c0.92-0.65,1.86-1.27,2.83-1.85c1.58-0.95,3.22-1.81,4.91-2.57c0.34-0.15,0.68-0.29,1.02-0.44c1.96-0.87-2.56,0.91-1.11,0.43
					c0.97-0.32,1.93-0.7,2.91-1c1.8-0.56,3.62-1.02,5.47-1.39c0.93-0.19,1.87-0.35,2.8-0.49c0.56-0.09,1.14-0.14,1.7-0.23
					c-3.77,0.66-1.77,0.18-0.83,0.11c4.05-0.34,8.14-0.3,12.18,0.1c0.97,0.1,1.94,0.23,2.91,0.35c1.83,0.23-1.2-0.2-1.25-0.21
					c0.57,0.04,1.17,0.2,1.74,0.31c2.02,0.39,4.03,0.86,6.01,1.42c1.88,0.53,3.74,1.14,5.58,1.82c0.91,0.34,1.8,0.74,2.72,1.08
					c1.41,0.53-2.82-1.31-0.87-0.38c0.53,0.25,1.05,0.49,1.58,0.75c3.63,1.78,7.01,3.91,10.28,6.29c1.72,1.25-1.9-1.61-0.78-0.63
					c0.35,0.31,0.73,0.6,1.08,0.9c0.71,0.61,1.41,1.24,2.09,1.88c1.48,1.41,2.88,2.9,4.18,4.48c0.24,0.28,0.46,0.58,0.7,0.86
					c1.39,1.69-1.72-2.47-0.49-0.66c0.53,0.77,1.06,1.54,1.56,2.33c0.52,0.84,1.01,1.7,1.46,2.58c0.18,0.35,0.35,0.7,0.52,1.06
					c0.2,0.42,1.23,2.91,0.35,0.7c-0.88-2.22,0.31,1.01,0.48,1.57c0.28,0.93,0.52,1.87,0.72,2.81c0.2,0.94,0.31,1.9,0.5,2.85
					c0.3,1.51-0.24-3.29-0.13-1.11c0.03,0.58,0.08,1.15,0.1,1.72c0.06,1.92-0.07,3.81-0.25,5.72c-0.21,2.22,0.59-2.91,0.12-0.74
					c-0.08,0.37-0.15,0.75-0.23,1.12c-0.25,1.11-0.55,2.22-0.9,3.3c-0.29,0.9-0.7,1.77-1,2.67c1.17-3.6,0.24-0.61-0.28,0.35
					c-0.46,0.84-0.96,1.66-1.49,2.46c-0.21,0.32-0.43,0.64-0.66,0.95c-1.76,2.45,1.42-1.52,0.06-0.06
					c-1.36,1.46-2.74,2.81-4.26,4.11c-0.76,0.64-1.33,0.43,0.98-0.72c-0.56,0.28-1.09,0.76-1.63,1.09
					c-1.02,0.64-2.07,1.22-3.16,1.75c-0.47,0.23-1.01,0.39-1.45,0.66c2.39-1.42,2.1-0.77,1.16-0.48c-0.98,0.31-1.95,0.63-2.96,0.87
					c-0.98,0.23-2.01,0.3-2.98,0.55c3.25-0.82,1.88-0.18,0.73-0.13c-0.59,0.03-1.19,0.04-1.79,0.04c-0.99-0.01-1.98-0.07-2.96-0.17
					c-1.11-0.11-2.42-0.82,0.65,0.14c-0.36-0.11-0.8-0.15-1.17-0.23c-2.18-0.47-4.16-1.3-6.25-2.01c3.51,1.19,0.45,0.15-0.53-0.39
					c-0.89-0.49-1.77-1.01-2.62-1.57c-0.85-0.56-1.64-1.25-2.51-1.78c2.46,1.53,1.54,1.26,0.9,0.69c-0.62-0.55-1.25-1.09-1.85-1.66
					c-1.45-1.38-2.73-2.88-4.02-4.41c-1-1.2,1.77,2.55,0.48,0.65c-0.3-0.44-0.6-0.87-0.89-1.31c-0.62-0.95-1.21-1.91-1.77-2.9
					c-1-1.78-1.75-3.65-2.65-5.47c1.79,3.64,0.26,0.6-0.09-0.47c-0.37-1.14-0.71-2.29-1-3.45c-0.49-1.94-0.82-3.9-1.13-5.87
					c-0.35-2.21,0.23,2.6,0.1,1.04c-0.04-0.5-0.09-0.99-0.13-1.49c-0.08-1.2-0.13-2.4-0.14-3.6c-0.02-2.01,0.07-4.02,0.25-6.02
					c0.09-1.01,0.22-2,0.35-3.01c0.1-0.8,0.53-1.93-0.2,1.2c0.16-0.69,0.25-1.4,0.39-2.09c0.83-4.09,2.03-8.11,3.58-11.99
					c0.23-0.57,0.5-1.13,0.7-1.7c-1.06,2.95-0.8,1.77-0.46,1.06c0.44-0.92,0.88-1.85,1.34-2.76c1.03-2,2.15-3.95,3.36-5.85
					c1.1-1.72,2.29-3.37,3.51-5c1.33-1.78-1.52,1.85-0.53,0.68c0.33-0.39,0.65-0.78,0.98-1.17c0.79-0.92,1.6-1.82,2.44-2.7
					c1.39-1.45,2.84-2.84,4.36-4.15c0.76-0.65,1.54-1.27,2.31-1.9c0.62-0.5,1.75-1.1-1,0.73c0.58-0.38,1.13-0.81,1.7-1.21
					c1.67-1.14,3.4-2.19,5.19-3.14c0.81-0.43,1.64-0.84,2.48-1.23c0.55-0.26,1.11-0.49,1.67-0.74c2.13-0.96-2.87,1.02-0.67,0.27
					c1.88-0.64,3.76-1.26,5.7-1.73c0.95-0.23,1.91-0.43,2.88-0.61c1.08-0.2,5.2-0.45,0.93-0.23c4.08-0.21,8.05-0.34,12.12,0.19
					c0.38,0.05,0.76,0.12,1.14,0.16c-3.69-0.41-1.59-0.25-0.73-0.08c0.94,0.18,1.88,0.39,2.81,0.63c1.86,0.47,3.69,1.03,5.49,1.69
					c0.9,0.33,1.77,0.74,2.67,1.06c-3.67-1.28-0.55-0.23,0.39,0.24c1.89,0.94,3.72,2,5.49,3.15c0.81,0.53,1.6,1.07,2.37,1.64
					c0.45,0.33,0.98,0.65,1.38,1.04c-0.03-0.03-2.36-1.96-0.99-0.77c1.61,1.4,3.19,2.81,4.66,4.36c1.35,1.42,2.53,2.95,3.79,4.45
					c-2.55-3.01-0.34-0.41,0.23,0.45c0.65,0.99,1.27,2,1.86,3.03c0.94,1.65,1.79,3.36,2.54,5.1c0.37,0.86,0.73,2.39-0.35-0.95
					c0.16,0.48,0.36,0.96,0.53,1.44c0.38,1.07,0.71,2.15,1.03,3.24c1.69,5.87,7.94,10.38,14.16,8.54
					C373.95,300.75,378.41,294.63,376.59,288.33L376.59,288.33z"/>
			</g>
		</g>
		<g id="_x3C_Radial_Repeat_x3E__00000047775748070741953560000000023984267825263501_">
			<g>
				<path class="st1" d="M183.44,404.12c17.89-12.1,28.46-31.84,29.24-53.35c0.73-20.32-8.9-40.99-25.36-53.04
					c-16.81-12.31-38.37-18.18-59.12-15.01c-10.56,1.62-20.86,4.94-29.72,11.09c-8.87,6.16-16.66,14.64-20.78,24.72
					c-4.39,10.73-5.96,22.96-1.94,34.1c3.97,11.01,12.36,20.55,23.25,25.14c10.28,4.33,21.62,5.14,32.34,1.81
					c11.2-3.48,20.09-10.73,26.68-20.27c11.34-16.42,13.33-37.9,9.55-57.06c-3.88-19.62-15.76-36.88-33.43-46.45
					c-16.64-9-37.29-10.86-55.2-4.63c-9.34,3.24-17.68,8.33-24.84,15.13c-7.53,7.16-12.72,16.22-16.16,25.94
					c-2.1,5.93-3.02,12.03-3.47,18.29c-0.21,2.85,1.75,6.42,3.76,8.27c2.07,1.91,5.4,3.29,8.26,3.09
					c6.85-0.49,10.89-5.48,11.36-12.02c0.02-0.25,0.04-0.51,0.05-0.76c0.11-1.25,0.08-1.01-0.08,0.7c0.13-0.45,0.13-1.04,0.2-1.51
					c0.18-1.26,0.41-2.51,0.68-3.75c0.27-1.24,0.58-2.47,0.93-3.7c0.21-0.73,0.44-1.46,0.68-2.18c0.28-0.85,1.21-2.67-0.24,0.55
					c1.67-3.73,3.33-7.26,5.53-10.72c0.97-1.53-0.79,1.09-0.79,1.1c0.25-0.47,0.67-0.92,0.99-1.34c0.56-0.73,1.14-1.44,1.73-2.14
					c1.24-1.45,2.56-2.84,3.95-4.14c0.66-0.62,1.35-1.2,2.02-1.8c1.12-1.02-2.64,2.08-0.96,0.8c0.36-0.27,0.71-0.55,1.07-0.82
					c1.5-1.12,3.06-2.17,4.67-3.13c1.53-0.91,3.11-1.72,4.71-2.5c1.96-0.96-2.94,1.23-0.91,0.42c0.33-0.13,0.66-0.27,0.99-0.41
					c0.99-0.4,1.99-0.77,3-1.11c1.69-0.57,3.4-1.06,5.14-1.47c0.87-0.2,1.74-0.39,2.62-0.55c0.35-0.07,0.71-0.11,1.06-0.19
					c-3.94,0.81-1.29,0.21-0.34,0.09c3.66-0.44,7.36-0.53,11.03-0.27c0.45,0.03,0.9,0.08,1.35,0.11c-3.51-0.2-1.95-0.22-1.09-0.09
					c0.81,0.12,1.62,0.22,2.42,0.36c1.98,0.34,3.94,0.78,5.88,1.32c0.89,0.25,1.77,0.52,2.64,0.81c0.51,0.17,1.09,0.31,1.57,0.55
					c-0.01-0.01-2.9-1.15-1.24-0.45c1.9,0.8,3.78,1.62,5.6,2.58c1.68,0.89,3.32,1.86,4.91,2.91c0.32,0.21,0.63,0.45,0.96,0.65
					c-3.12-1.93-1.31-0.93-0.59-0.39c0.9,0.68,1.78,1.38,2.63,2.12c1.4,1.21,2.72,2.51,3.96,3.88c0.25,0.27,0.49,0.56,0.74,0.83
					c1.44,1.59-1.66-2.15-0.75-0.92c0.61,0.83,1.26,1.62,1.85,2.46c1.09,1.54,2.09,3.13,3.01,4.77c0.47,0.83,0.91,1.67,1.34,2.51
					c0.26,0.51,0.48,1.04,0.75,1.54c-1.79-3.38-0.72-1.62-0.36-0.76c1.58,3.75,2.8,7.65,3.67,11.62c0.21,0.95,0.38,1.92,0.57,2.88
					c0.35,1.81-0.18-1.21-0.19-1.26c0.14,0.56,0.17,1.18,0.24,1.75c0.26,2.04,0.42,4.09,0.51,6.15c0.08,1.95,0.07,3.91-0.01,5.87
					c-0.04,0.97-0.15,1.94-0.19,2.92c-0.07,1.51,0.37-3.09,0.1-0.95c-0.07,0.58-0.14,1.15-0.22,1.73c-0.57,4-1.55,7.88-2.81,11.72
					c-0.66,2.02,0.95-2.31,0.36-0.94c-0.19,0.43-0.34,0.88-0.52,1.31c-0.36,0.87-0.74,1.72-1.14,2.57
					c-0.88,1.84-1.87,3.64-2.96,5.36c-0.2,0.31-0.41,0.62-0.61,0.93c-1.18,1.85,1.81-2.4,0.48-0.67c-0.57,0.74-1.13,1.49-1.74,2.2
					c-0.64,0.75-1.31,1.48-2.01,2.18c-0.28,0.28-0.56,0.55-0.85,0.82c-0.34,0.32-2.39,2.07-0.55,0.55c1.84-1.52-0.87,0.61-1.35,0.94
					c-0.8,0.55-1.62,1.07-2.45,1.56c-0.84,0.48-1.72,0.88-2.56,1.35c-1.34,0.75,3.05-1.25,1.02-0.46c-0.54,0.21-1.07,0.43-1.61,0.63
					c-1.81,0.65-3.65,1.11-5.52,1.53c-2.18,0.49,2.96-0.34,0.74-0.11c-0.38,0.04-0.76,0.09-1.13,0.13
					c-1.14,0.11-2.28,0.16-3.42,0.16c-0.95,0-1.9-0.12-2.85-0.12c3.79,0,0.65,0.04-0.42-0.16c-0.94-0.18-1.87-0.4-2.8-0.65
					c-0.37-0.1-0.74-0.21-1.11-0.33c-2.88-0.92,1.88,0.88,0.08,0.04c-1.81-0.85-3.52-1.73-5.22-2.78c-0.85-0.52-0.82-1.13,0.98,0.71
					c-0.44-0.45-1.06-0.81-1.54-1.21c-0.92-0.77-1.81-1.59-2.64-2.46c-0.36-0.38-0.69-0.84-1.08-1.18c2.09,1.84,1.38,1.76,0.81,0.95
					c-0.6-0.84-1.2-1.66-1.74-2.54c-0.52-0.86-0.91-1.81-1.44-2.66c1.79,2.84,0.75,1.73,0.35,0.66c-0.21-0.56-0.41-1.12-0.59-1.69
					c-0.3-0.94-0.55-1.9-0.76-2.87c-0.23-1.09,0.03-2.55,0.07,0.66c0-0.38-0.1-0.81-0.14-1.18c-0.22-2.21-0.05-4.36-0.02-6.57
					c-0.05,3.71,0,0.48,0.2-0.62c0.19-1,0.42-1.99,0.69-2.97c0.27-0.99,0.68-1.95,0.92-2.94c-0.7,2.81-0.72,1.85-0.38,1.07
					c0.33-0.76,0.65-1.53,1.01-2.28c0.87-1.81,1.89-3.49,2.95-5.19c0.83-1.33-1.88,2.47-0.47,0.66c0.32-0.42,0.64-0.84,0.97-1.25
					c0.71-0.88,1.44-1.74,2.21-2.58c1.38-1.5,2.93-2.79,4.39-4.21c-2.91,2.83-0.49,0.43,0.42-0.24c0.97-0.71,1.96-1.38,2.98-2.02
					c1.69-1.06,3.45-1.99,5.24-2.89c2-1.01-2.4,1.02-0.96,0.42c0.46-0.19,0.92-0.39,1.38-0.58c1.11-0.45,2.24-0.87,3.38-1.24
					c1.91-0.64,3.84-1.18,5.8-1.62c0.98-0.22,1.98-0.41,2.97-0.6c0.79-0.15,2-0.09-1.2,0.18c0.7-0.06,1.41-0.2,2.11-0.28
					c4.15-0.48,8.34-0.57,12.51-0.3c0.61,0.04,1.22,0.13,1.83,0.14c-3.13-0.09-1.93-0.21-1.15-0.11c1.01,0.13,2.03,0.26,3.04,0.42
					c2.22,0.36,4.42,0.82,6.6,1.39c1.97,0.51,3.91,1.13,5.84,1.79c2.11,0.72-2.23-0.88-0.81-0.3c0.47,0.19,0.94,0.37,1.41,0.57
					c1.12,0.47,2.23,0.96,3.32,1.49c1.81,0.87,3.58,1.83,5.3,2.86c0.86,0.52,1.69,1.07,2.53,1.61c0.67,0.43,1.58,1.33-1.01-0.73
					c0.54,0.43,1.12,0.82,1.67,1.25c1.6,1.24,3.14,2.56,4.59,3.96c0.66,0.64,1.31,1.3,1.94,1.97c0.41,0.45,0.81,0.91,1.22,1.36
					c1.57,1.73-1.85-2.41-0.46-0.56c1.19,1.59,2.36,3.19,3.4,4.88c0.51,0.84,1,1.69,1.47,2.55c0.52,0.97,2.03,4.8,0.5,0.82
					c1.46,3.82,2.81,7.55,3.57,11.59c0.07,0.38,0.12,0.76,0.2,1.13c-0.75-3.64-0.26-1.59-0.15-0.72c0.12,0.95,0.21,1.91,0.27,2.86
					c0.13,1.91,0.16,3.83,0.09,5.74c-0.03,0.96-0.16,1.91-0.18,2.87c0.08-3.89,0.05-0.6-0.11,0.45c-0.32,2.09-0.75,4.16-1.3,6.19
					c-0.25,0.93-0.53,1.85-0.82,2.76c-0.17,0.53-0.32,1.13-0.56,1.64c0.02-0.04,1.14-2.85,0.43-1.18c-0.83,1.96-1.69,3.9-2.7,5.78
					c-0.93,1.72-2.03,3.32-3.06,4.97c2.08-3.35,0.29-0.45-0.36,0.36c-0.74,0.93-1.51,1.83-2.31,2.71c-1.28,1.4-2.64,2.74-4.07,3.99
					c-0.7,0.62-2.04,1.44,0.79-0.62c-0.41,0.3-0.8,0.64-1.2,0.95c-0.9,0.69-1.83,1.34-2.76,1.98c-5.06,3.42-7.42,10.76-3.74,16.11
					C170.81,405.44,178.01,407.79,183.44,404.12L183.44,404.12z"/>
			</g>
		</g>
		<g id="_x3C_Radial_Repeat_x3E__00000067226315165789904340000012193476170336537734_">
			<g>
				<path class="st1" d="M13.63,256.19c17.04,13.27,39.08,17.23,59.77,11.32c19.55-5.58,36.23-21.13,42.61-40.51
					c6.51-19.8,5.43-42.11-4-60.86c-4.8-9.55-11.14-18.31-19.73-24.84c-8.6-6.53-19.07-11.32-29.94-12.13
					c-11.56-0.86-23.68,1.43-33.03,8.69c-9.24,7.17-15.73,18.11-16.72,29.88c-0.94,11.12,1.8,22.15,8.28,31.32
					c6.77,9.58,16.41,15.79,27.52,19.11c19.12,5.71,40.17,0.97,57.21-8.55c17.46-9.75,30.21-26.38,33.84-46.15
					c3.42-18.6-1.2-38.82-12.65-53.93c-5.97-7.88-13.38-14.24-22.07-18.95c-9.13-4.95-19.36-7.08-29.67-7.35
					c-6.29-0.17-12.37,0.85-18.47,2.35c-2.78,0.69-5.56,3.65-6.7,6.14c-1.18,2.56-1.46,6.16-0.39,8.81
					c2.58,6.37,8.58,8.67,14.94,7.09c0.25-0.06,0.49-0.12,0.74-0.18c1.22-0.28,0.99-0.23-0.69,0.14c0.47-0.02,1.03-0.2,1.5-0.28
					c1.25-0.21,2.51-0.38,3.78-0.51c1.26-0.13,2.53-0.21,3.8-0.25c0.76-0.02,1.52-0.03,2.29-0.03c0.89,0.01,2.91,0.32-0.6-0.05
					c4.06,0.44,7.94,0.92,11.91,1.94c1.76,0.45-1.28-0.41-1.29-0.42c0.52,0.09,1.08,0.35,1.58,0.53c0.87,0.31,1.73,0.63,2.57,0.99
					c1.76,0.73,3.49,1.56,5.16,2.47c0.79,0.43,1.55,0.91,2.34,1.36c1.31,0.75-2.79-1.86-1.06-0.66c0.37,0.26,0.74,0.5,1.11,0.76
					c1.53,1.08,3.01,2.24,4.42,3.48c1.34,1.18,2.6,2.43,3.84,3.71c1.52,1.57-2.08-2.41-0.68-0.74c0.23,0.27,0.46,0.54,0.69,0.81
					c0.68,0.82,1.35,1.66,1.98,2.51c1.06,1.43,2.06,2.91,2.98,4.43c0.46,0.76,0.91,1.54,1.33,2.32c0.17,0.31,0.33,0.64,0.5,0.95
					c-1.99-3.5-0.6-1.16-0.2-0.29c1.55,3.34,2.78,6.83,3.67,10.41c0.11,0.44,0.2,0.88,0.31,1.32c-0.89-3.4-0.39-1.92-0.25-1.06
					c0.14,0.81,0.29,1.61,0.41,2.42c0.29,1.99,0.48,3.99,0.56,6c0.04,0.92,0.05,1.84,0.05,2.76c0,0.53,0.05,1.13-0.03,1.66
					c0-0.02,0.2-3.11,0.04-1.32c-0.18,2.05-0.37,4.09-0.73,6.13c-0.33,1.87-0.74,3.73-1.25,5.56c-0.1,0.37-0.23,0.74-0.32,1.11
					c0.87-3.57,0.48-1.53,0.19-0.69c-0.37,1.07-0.76,2.12-1.2,3.16c-0.72,1.7-1.55,3.36-2.46,4.96c-0.18,0.32-0.38,0.64-0.56,0.96
					c-1.07,1.86,1.53-2.24,0.64-1c-0.6,0.83-1.15,1.7-1.77,2.52c-1.13,1.51-2.33,2.96-3.6,4.34c-0.64,0.7-1.3,1.38-1.98,2.05
					c-0.41,0.4-0.84,0.78-1.24,1.19c2.66-2.74,1.32-1.19,0.61-0.58c-3.08,2.66-6.41,5.02-9.92,7.08c-0.84,0.49-1.7,0.96-2.56,1.43
					c-1.61,0.89,1.09-0.54,1.14-0.57c-0.49,0.3-1.07,0.53-1.59,0.77c-1.86,0.88-3.76,1.67-5.69,2.38c-1.84,0.68-3.7,1.28-5.58,1.8
					c-0.94,0.26-1.89,0.46-2.83,0.72c-1.45,0.4,3.05-0.6,0.93-0.2c-0.57,0.11-1.14,0.22-1.71,0.32c-3.98,0.7-7.97,0.96-12.01,0.95
					c-2.13,0,2.49,0.19,1.01,0.05c-0.47-0.04-0.94-0.06-1.41-0.09c-0.93-0.07-1.87-0.17-2.79-0.3c-2.03-0.27-4.04-0.65-6.02-1.16
					c-0.36-0.09-0.71-0.2-1.07-0.29c-2.12-0.55,2.85,0.98,0.78,0.25c-0.88-0.31-1.76-0.62-2.63-0.97c-0.92-0.37-1.82-0.78-2.7-1.23
					c-0.35-0.18-0.7-0.36-1.04-0.55c-0.41-0.22-2.71-1.63-0.7-0.36c2.02,1.28-0.85-0.64-1.31-0.99c-0.77-0.59-1.52-1.21-2.24-1.85
					c-0.72-0.64-1.37-1.36-2.08-2.01c-1.13-1.04,2.13,2.52,0.75,0.83c-0.36-0.45-0.74-0.88-1.09-1.34
					c-1.18-1.52-2.18-3.13-3.16-4.78c-1.14-1.92,1.23,2.71,0.33,0.67c-0.15-0.35-0.32-0.69-0.47-1.04c-0.46-1.05-0.86-2.11-1.21-3.2
					c-0.29-0.9-0.47-1.85-0.77-2.75c1.17,3.6,0.16,0.63,0.02-0.45c-0.12-0.95-0.2-1.9-0.24-2.86c-0.02-0.38-0.02-0.77-0.03-1.15
					c-0.02-3.02-0.25,2.06-0.01,0.09c0.24-1.98,0.56-3.88,1.03-5.83c0.23-0.97,0.82-1.13-0.37,1.15c0.29-0.56,0.44-1.26,0.68-1.84
					c0.45-1.12,0.96-2.21,1.53-3.27c0.25-0.46,0.58-0.91,0.79-1.39c-1.1,2.56-1.25,1.86-0.66,1.07c0.61-0.83,1.21-1.66,1.88-2.44
					c0.66-0.76,1.44-1.42,2.09-2.19c-2.15,2.58-1.41,1.25-0.52,0.53c0.46-0.37,0.94-0.73,1.42-1.08c0.8-0.58,1.64-1.11,2.5-1.61
					c0.96-0.56,2.43-0.76-0.6,0.27c0.36-0.12,0.74-0.35,1.08-0.5c2.04-0.9,4.13-1.39,6.24-2.05c-3.54,1.1-0.45,0.14,0.65,0
					c1.01-0.13,2.02-0.22,3.04-0.27c1.02-0.05,2.06,0.04,3.08-0.03c-2.89,0.21-1.99-0.12-1.13-0.03c0.83,0.08,1.65,0.15,2.48,0.26
					c1.99,0.27,3.9,0.72,5.84,1.21c1.52,0.38-2.93-1.02-0.78-0.24c0.5,0.18,1,0.35,1.49,0.53c1.06,0.4,2.11,0.83,3.13,1.31
					c1.86,0.85,3.56,1.92,5.36,2.87c-3.59-1.89-0.56-0.33,0.35,0.33c0.97,0.7,1.92,1.44,2.84,2.21c1.54,1.28,2.96,2.67,4.37,4.09
					c1.58,1.59-1.72-1.97-0.69-0.78c0.33,0.38,0.66,0.75,0.98,1.13c0.77,0.92,1.52,1.86,2.23,2.83c1.19,1.62,2.31,3.29,3.33,5.02
					c0.52,0.87,1,1.75,1.49,2.64c0.39,0.71,0.71,1.88-0.54-1.08c0.28,0.65,0.62,1.28,0.92,1.92c1.74,3.8,3.12,7.76,4.15,11.8
					c0.15,0.59,0.26,1.2,0.43,1.79c-0.88-3.01-0.39-1.9-0.25-1.12c0.19,1.01,0.38,2.01,0.54,3.02c0.35,2.22,0.59,4.46,0.72,6.7
					c0.12,2.04,0.13,4.07,0.1,6.11c-0.03,2.22,0.15-2.39,0.03-0.86c-0.04,0.51-0.06,1.01-0.1,1.52c-0.1,1.21-0.23,2.41-0.39,3.62
					c-0.27,1.99-0.63,3.97-1.09,5.92c-0.23,0.97-0.49,1.93-0.75,2.9c-0.2,0.77-0.77,1.91,0.38-1.18c-0.24,0.65-0.43,1.32-0.67,1.98
					c-0.68,1.91-1.46,3.77-2.35,5.59c-0.4,0.83-0.83,1.65-1.28,2.45c-0.3,0.53-0.61,1.05-0.92,1.58c-1.16,2.02,1.72-2.51,0.39-0.61
					c-1.14,1.63-2.3,3.23-3.59,4.75c-0.64,0.75-1.29,1.47-1.97,2.18c-0.76,0.79-3.94,3.42-0.62,0.73c-3.18,2.57-6.31,5.01-9.92,6.97
					c-0.34,0.18-0.68,0.35-1.02,0.54c3.23-1.84,1.43-0.74,0.64-0.36c-0.87,0.4-1.75,0.78-2.64,1.14c-1.78,0.71-3.59,1.34-5.43,1.86
					c-0.92,0.26-1.87,0.44-2.78,0.72c3.72-1.12,0.59-0.14-0.46,0.04c-2.08,0.35-4.19,0.57-6.29,0.68c-0.96,0.05-1.92,0.07-2.88,0.07
					c-0.56,0-1.18,0.05-1.73-0.03c0.05,0.01,3.07,0.2,1.26,0.04c-2.12-0.19-4.23-0.4-6.33-0.79c-1.92-0.36-3.78-0.91-5.68-1.37
					c3.83,0.94,0.52,0.13-0.45-0.23c-1.11-0.42-2.21-0.87-3.29-1.36c-1.73-0.79-3.42-1.67-5.06-2.63c-0.8-0.48-2-1.5,0.84,0.56
					c-0.41-0.3-0.85-0.56-1.27-0.85c-0.93-0.64-1.84-1.32-2.74-2.02c-4.82-3.76-12.53-3.73-16.48,1.42
					C8.47,244.59,8.46,252.17,13.63,256.19L13.63,256.19z"/>
			</g>
		</g>
		<g id="_x3C_Radial_Repeat_x3E__00000021834552759668748290000004991049285688569009_">
			<g>
				<path class="st1" d="M101.84,48.99c-7.36,20.3-4.31,42.49,7.7,60.35c11.35,16.87,31.29,27.93,51.69,28.01
					c20.84,0.08,41.73-7.85,56.65-22.61c7.6-7.52,13.97-16.25,17.52-26.44c3.55-10.2,4.88-21.63,2.28-32.22
					c-2.76-11.26-8.67-22.08-18.47-28.73c-9.68-6.57-22.08-9.36-33.59-6.67c-10.86,2.54-20.51,8.56-27.23,17.55
					c-7.02,9.4-9.95,20.49-9.67,32.08c0.48,19.95,11.49,38.5,25.81,51.77c14.67,13.59,34.43,20.58,54.35,17.92
					c18.75-2.5,36.55-13.14,47.38-28.69c5.65-8.11,9.41-17.13,11.2-26.84c1.89-10.22,0.75-20.6-2.17-30.49
					c-1.79-6.03-4.63-11.5-7.94-16.83c-1.51-2.43-5.19-4.16-7.91-4.48c-2.79-0.33-6.31,0.51-8.5,2.35
					c-5.26,4.42-5.59,10.84-2.13,16.4c0.13,0.22,0.27,0.43,0.4,0.65c0.64,1.07,0.53,0.87-0.35-0.61c0.16,0.44,0.5,0.92,0.73,1.34
					c0.59,1.13,1.14,2.27,1.65,3.43c0.51,1.16,0.99,2.34,1.42,3.54c0.26,0.72,0.5,1.44,0.73,2.17c0.27,0.85,0.59,2.87-0.13-0.58
					c0.84,4,1.57,7.83,1.83,11.93c0.11,1.81,0-1.35,0-1.36c0.08,0.52,0,1.14-0.02,1.67c-0.02,0.92-0.07,1.84-0.14,2.75
					c-0.15,1.9-0.4,3.8-0.76,5.67c-0.17,0.89-0.39,1.76-0.57,2.64c-0.31,1.48,0.91-3.23,0.3-1.21c-0.13,0.43-0.25,0.86-0.38,1.29
					c-0.55,1.79-1.2,3.55-1.94,5.28c-0.7,1.64-1.51,3.22-2.34,4.8c-1.02,1.93,1.65-2.72,0.49-0.87c-0.19,0.3-0.37,0.61-0.56,0.91
					c-0.57,0.9-1.16,1.79-1.78,2.66c-1.03,1.45-2.13,2.86-3.29,4.21c-0.58,0.68-1.18,1.34-1.79,1.99c-0.24,0.26-0.5,0.51-0.74,0.77
					c2.71-2.98,0.92-0.93,0.22-0.28c-2.7,2.51-5.64,4.75-8.77,6.7c-0.38,0.24-0.78,0.46-1.16,0.7c2.96-1.9,1.71-0.97,0.93-0.56
					c-0.72,0.38-1.44,0.77-2.17,1.13c-1.8,0.89-3.65,1.69-5.53,2.39c-0.86,0.32-1.73,0.62-2.61,0.9c-0.51,0.16-1.06,0.39-1.59,0.48
					c0.02,0,3.02-0.77,1.27-0.37c-2.01,0.47-4.01,0.91-6.05,1.2c-1.88,0.27-3.78,0.45-5.68,0.53c-0.38,0.02-0.77,0.01-1.15,0.04
					c3.66-0.28,1.61-0.02,0.71-0.03c-1.13-0.02-2.25-0.07-3.38-0.17c-1.84-0.16-3.67-0.43-5.48-0.81c-0.36-0.08-0.72-0.16-1.09-0.24
					c-2.1-0.45,2.6,0.76,1.15,0.3c-0.98-0.31-1.97-0.57-2.94-0.9c-1.78-0.6-3.53-1.3-5.24-2.09c-0.86-0.4-1.72-0.81-2.56-1.25
					c-0.51-0.26-1-0.56-1.51-0.81c3.43,1.68,1.54,0.89,0.74,0.4c-3.48-2.1-6.76-4.54-9.8-7.24c-0.73-0.65-1.44-1.32-2.15-1.99
					c-1.34-1.26,0.86,0.87,0.89,0.9c-0.44-0.37-0.83-0.85-1.22-1.27c-1.41-1.5-2.75-3.06-4.02-4.68c-1.21-1.54-2.36-3.12-3.44-4.75
					c-0.54-0.81-1.03-1.66-1.56-2.47c-0.83-1.26,1.51,2.72,0.48,0.82c-0.28-0.51-0.56-1.02-0.84-1.53
					c-1.89-3.57-3.37-7.29-4.62-11.13c-0.65-2.02,0.59,2.42,0.26,0.97c-0.1-0.46-0.24-0.91-0.35-1.37
					c-0.22-0.91-0.41-1.83-0.58-2.75c-0.37-2.01-0.63-4.04-0.75-6.08c-0.02-0.37-0.03-0.74-0.06-1.11
					c-0.13-2.19-0.06,3.01,0.01,0.82c0.03-0.93,0.04-1.87,0.11-2.8c0.07-0.99,0.19-1.97,0.34-2.95c0.06-0.39,0.13-0.78,0.2-1.16
					c0.09-0.46,0.72-3.08,0.12-0.77c-0.6,2.32,0.34-1,0.54-1.55c0.32-0.91,0.68-1.81,1.07-2.7c0.39-0.88,0.87-1.72,1.27-2.6
					c0.64-1.4-1.74,2.81-0.55,0.97c0.31-0.48,0.61-0.97,0.93-1.45c1.08-1.59,2.3-3.04,3.57-4.48c1.47-1.67-2.19,2.01-0.53,0.52
					c0.28-0.25,0.56-0.52,0.84-0.77c0.85-0.76,1.75-1.47,2.67-2.14c0.77-0.56,1.61-1.02,2.38-1.58c-3.06,2.23-0.55,0.35,0.44-0.12
					c0.87-0.41,1.75-0.78,2.65-1.11c0.36-0.13,0.72-0.26,1.09-0.38c2.87-0.95-2.04,0.4-0.09,0.02c1.96-0.38,3.87-0.66,5.86-0.82
					c0.99-0.08,1.33,0.43-1.21,0.01c0.62,0.1,1.33,0.03,1.96,0.07c1.2,0.08,2.4,0.23,3.58,0.44c0.51,0.09,1.05,0.27,1.56,0.32
					c-2.77-0.25-2.16-0.61-1.22-0.3c0.98,0.33,1.95,0.64,2.9,1.04c0.93,0.39,1.8,0.93,2.73,1.31c-3.12-1.25-1.63-0.96-0.67-0.33
					c0.5,0.33,0.99,0.67,1.47,1.02c0.8,0.59,1.56,1.22,2.3,1.88c0.83,0.74,1.47,2.08-0.44-0.49c0.23,0.3,0.56,0.59,0.81,0.87
					c1.48,1.66,2.6,3.5,3.88,5.3c-2.14-3.03-0.28-0.39,0.2,0.62c0.43,0.92,0.83,1.86,1.19,2.81c0.36,0.96,0.6,1.97,0.98,2.92
					c-1.09-2.69-0.5-1.92-0.32-1.09c0.18,0.81,0.37,1.62,0.52,2.44c0.36,1.97,0.52,3.94,0.66,5.93c0.11,1.56,0.07-3.1-0.01-0.81
					c-0.02,0.53-0.02,1.06-0.05,1.58c-0.05,1.13-0.14,2.26-0.27,3.38c-0.24,2.03-0.73,3.98-1.08,5.98c0.69-4,0.14-0.63-0.2,0.44
					c-0.37,1.14-0.78,2.27-1.22,3.38c-0.74,1.86-1.63,3.64-2.54,5.41c-1.02,1.99,1.34-2.24,0.53-0.9c-0.26,0.43-0.51,0.86-0.78,1.28
					c-0.64,1.02-1.3,2.02-2,2.99c-1.17,1.63-2.42,3.21-3.74,4.72c-0.67,0.76-1.36,1.49-2.05,2.23c-0.55,0.59-1.56,1.25,0.86-0.85
					c-0.53,0.46-1.02,0.99-1.54,1.46c-3.07,2.83-6.41,5.36-9.94,7.59c-0.52,0.33-1.07,0.62-1.57,0.96c2.59-1.77,1.68-0.96,0.99-0.59
					c-0.9,0.49-1.79,0.98-2.71,1.44c-2.01,1.02-4.06,1.94-6.15,2.76c-1.9,0.75-3.83,1.38-5.78,1.98c-2.12,0.66,2.32-0.6,0.83-0.23
					c-0.49,0.12-0.98,0.25-1.47,0.37c-1.18,0.28-2.37,0.53-3.56,0.75c-1.98,0.36-3.97,0.63-5.97,0.8c-1,0.09-1.99,0.13-2.99,0.18
					c-0.79,0.04-2.06-0.14,1.24,0c-0.69-0.03-1.39,0-2.09-0.02c-2.02-0.06-4.04-0.22-6.05-0.51c-0.91-0.13-1.82-0.28-2.73-0.46
					c-0.6-0.12-1.19-0.26-1.79-0.38c-2.28-0.48,2.92,0.86,0.7,0.18c-1.9-0.59-3.78-1.19-5.62-1.95c-0.91-0.37-1.8-0.78-2.69-1.2
					c-0.99-0.48-4.47-2.69-0.89-0.36c-3.43-2.23-6.71-4.45-9.69-7.28c-0.28-0.26-0.55-0.54-0.83-0.8c2.75,2.51,1.14,1.13,0.54,0.49
					c-0.65-0.7-1.29-1.42-1.9-2.16c-1.23-1.47-2.38-3-3.45-4.59c-0.53-0.79-1-1.64-1.54-2.42c2.22,3.19,0.31,0.51-0.18-0.43
					c-0.97-1.87-1.84-3.8-2.59-5.78c-0.34-0.9-0.66-1.81-0.96-2.72c-0.17-0.53-0.41-1.11-0.51-1.66c0.01,0.05,0.76,2.98,0.35,1.21
					c-0.48-2.08-0.93-4.15-1.21-6.26c-0.26-1.94-0.31-3.88-0.45-5.82c0.29,3.94,0.03,0.54,0.08-0.5c0.05-1.18,0.15-2.37,0.28-3.55
					c0.21-1.89,0.53-3.77,0.94-5.62c0.2-0.91,0.81-2.36-0.28,0.97c0.16-0.48,0.27-0.98,0.42-1.47c0.32-1.09,0.69-2.16,1.07-3.23
					c2.08-5.74-0.33-13.07-6.44-15.23C111.28,40.49,104.07,42.83,101.84,48.99L101.84,48.99z"/>
			</g>
		</g>
		<g id="_x3C_Radial_Repeat_x3E__00000178192390754970373610000007957423419501075363_">
			<g>
				<path class="st1" d="M326.17,68.85c-21.59-0.73-41.74,9.03-55.01,25.97c-12.54,16.01-16.89,38.39-10.66,57.81
					c6.37,19.84,20.36,37.26,39.01,46.89c9.5,4.9,19.78,8.27,30.56,8.49c10.8,0.23,22.08-2.05,31.35-7.78
					c9.86-6.1,18.32-15.07,21.62-26.45c3.26-11.24,2.08-23.9-4.04-34c-5.78-9.54-14.48-16.86-25.1-20.47
					c-11.11-3.77-22.56-3.13-33.5,0.72c-18.82,6.62-33.07,22.83-41.26,40.55c-8.39,18.15-8.93,39.1-0.25,57.23
					c8.17,17.06,23.79,30.7,41.93,36.19c9.46,2.86,19.19,3.66,28.99,2.36c10.3-1.36,19.83-5.65,28.32-11.49
					c5.19-3.56,9.51-7.96,13.56-12.76c1.84-2.19,2.35-6.22,1.82-8.9c-0.55-2.76-2.43-5.84-4.86-7.35
					c-5.83-3.63-12.04-1.97-16.26,3.04c-0.16,0.19-0.33,0.39-0.49,0.58c-0.82,0.94-0.66,0.77,0.47-0.52
					c-0.37,0.29-0.72,0.76-1.05,1.1c-0.89,0.91-1.81,1.79-2.75,2.63c-0.95,0.85-1.92,1.66-2.93,2.44c-0.6,0.47-1.21,0.92-1.83,1.37
					c-0.73,0.52-2.54,1.45,0.51-0.31c-3.54,2.03-6.96,3.92-10.78,5.43c-1.69,0.67,1.28-0.42,1.29-0.42
					c-0.47,0.23-1.08,0.35-1.59,0.5c-0.88,0.26-1.77,0.5-2.66,0.72c-1.86,0.45-3.74,0.79-5.63,1.03c-0.89,0.11-1.79,0.17-2.69,0.27
					c-1.5,0.16,3.36-0.13,1.25-0.09c-0.45,0.01-0.9,0.03-1.34,0.04c-1.88,0.03-3.75-0.05-5.62-0.22c-1.78-0.16-3.53-0.44-5.29-0.74
					c-2.15-0.38,3.1,0.73,0.98,0.2c-0.35-0.09-0.69-0.16-1.04-0.25c-1.04-0.26-2.06-0.55-3.08-0.87c-1.7-0.53-3.37-1.14-5.02-1.83
					c-0.82-0.35-1.64-0.71-2.44-1.09c-0.32-0.15-0.64-0.32-0.96-0.47c3.67,1.66,1.17,0.59,0.33,0.12c-3.22-1.79-6.26-3.9-9.09-6.27
					c-0.35-0.29-0.68-0.6-1.03-0.88c2.72,2.23,1.45,1.32,0.82,0.71c-0.58-0.57-1.18-1.13-1.75-1.72c-1.4-1.44-2.73-2.95-3.98-4.52
					c-0.57-0.72-1.13-1.46-1.66-2.2c-0.31-0.43-0.7-0.89-0.95-1.37c0.01,0.01,1.67,2.63,0.74,1.09c-1.06-1.77-2.1-3.53-3.01-5.38
					c-0.84-1.71-1.59-3.46-2.26-5.24c-0.13-0.36-0.25-0.73-0.39-1.09c1.39,3.39,0.52,1.52,0.25,0.66c-0.33-1.08-0.63-2.17-0.88-3.26
					c-0.42-1.8-0.72-3.63-0.92-5.46c-0.04-0.37-0.07-0.74-0.11-1.11c-0.23-2.13,0.08,2.71,0.07,1.18c-0.01-1.03-0.07-2.05-0.05-3.08
					c0.02-1.88,0.15-3.76,0.37-5.63c0.11-0.94,0.24-1.88,0.4-2.82c0.09-0.56,0.22-1.12,0.3-1.69c-0.54,3.79-0.37,1.74-0.16,0.83
					c0.92-3.96,2.23-7.83,3.86-11.56c0.39-0.9,0.82-1.77,1.23-2.66c0.78-1.67-0.56,1.08-0.58,1.13c0.21-0.53,0.55-1.05,0.83-1.55
					c0.99-1.8,2.06-3.56,3.21-5.27c1.09-1.63,2.24-3.21,3.46-4.74c0.61-0.76,1.26-1.49,1.87-2.25c0.94-1.18-2.12,2.28-0.63,0.71
					c0.4-0.42,0.79-0.85,1.2-1.27c2.81-2.9,5.89-5.46,9.16-7.83c1.72-1.25-2.12,1.31-0.84,0.55c0.4-0.24,0.79-0.51,1.19-0.75
					c0.8-0.49,1.61-0.96,2.43-1.4c1.8-0.97,3.65-1.84,5.55-2.59c0.34-0.14,0.69-0.26,1.04-0.39c2.04-0.8-2.88,0.88-0.78,0.26
					c0.9-0.26,1.79-0.54,2.7-0.76c0.96-0.24,1.93-0.43,2.91-0.59c0.39-0.06,0.78-0.12,1.17-0.17c0.46-0.06,3.15-0.27,0.77-0.12
					c-2.39,0.15,1.06,0.02,1.65,0.03c0.97,0.02,1.93,0.08,2.9,0.18c0.96,0.1,1.91,0.3,2.86,0.41c1.53,0.18-3.21-0.78-1.1-0.22
					c0.56,0.15,1.12,0.28,1.67,0.44c1.85,0.53,3.6,1.25,5.36,2.01c2.05,0.89-2.59-1.47-0.66-0.34c0.33,0.19,0.66,0.37,0.99,0.56
					c0.98,0.58,1.94,1.21,2.86,1.88c0.77,0.56,1.47,1.22,2.23,1.77c-3.07-2.22-0.5-0.42,0.25,0.38c0.66,0.7,1.28,1.42,1.88,2.17
					c0.24,0.3,0.47,0.61,0.7,0.92c1.79,2.43-1.01-1.82-0.04-0.08c0.97,1.75,1.83,3.47,2.59,5.32c0.38,0.92,0,1.39-0.38-1.15
					c0.09,0.62,0.38,1.27,0.54,1.89c0.29,1.17,0.52,2.35,0.69,3.54c0.07,0.52,0.06,1.08,0.18,1.59c-0.62-2.72-0.08-2.24-0.09-1.25
					c-0.01,1.03-0.01,2.05-0.09,3.08c-0.08,1-0.33,2-0.4,3c0.22-3.35,0.41-1.84,0.11-0.74c-0.16,0.57-0.33,1.15-0.52,1.71
					c-0.31,0.94-0.67,1.86-1.08,2.77c-0.45,1.02-1.52,2.04,0.33-0.57c-0.22,0.31-0.39,0.71-0.58,1.04
					c-1.12,1.92-2.53,3.55-3.85,5.33c2.22-2.97,0.28-0.38-0.53,0.38c-0.74,0.7-1.51,1.37-2.3,2c-0.8,0.64-1.69,1.18-2.47,1.83
					c2.22-1.87,1.67-1.07,0.93-0.64c-0.72,0.42-1.42,0.85-2.15,1.25c-1.76,0.95-3.58,1.71-5.44,2.46c-1.45,0.59,2.97-0.89,0.77-0.26
					c-0.51,0.15-1.01,0.3-1.52,0.44c-1.09,0.3-2.19,0.56-3.3,0.79c-2,0.4-4.01,0.54-6.02,0.83c4.02-0.58,0.64-0.06-0.48-0.06
					c-1.2,0-2.4-0.04-3.59-0.12c-2-0.13-3.96-0.42-5.93-0.74c-2.21-0.36,2.55,0.58,1.02,0.22c-0.49-0.11-0.97-0.22-1.46-0.34
					c-1.16-0.29-2.32-0.62-3.46-0.98c-1.91-0.61-3.8-1.31-5.65-2.1c-0.93-0.4-1.84-0.83-2.75-1.26c-0.73-0.34-1.68-1.1,1.08,0.56
					c-0.61-0.36-1.25-0.67-1.87-1.01c-3.64-2.05-7.08-4.44-10.29-7.11c-0.47-0.39-0.92-0.82-1.4-1.2c2.48,1.92,1.43,1.3,0.86,0.76
					c-0.74-0.7-1.49-1.4-2.21-2.13c-1.59-1.59-3.09-3.26-4.52-5c-1.3-1.58-2.5-3.22-3.67-4.88c-1.28-1.82,1.28,2.02,0.48,0.72
					c-0.27-0.43-0.54-0.86-0.81-1.29c-0.63-1.03-1.24-2.09-1.81-3.15c-0.95-1.77-1.82-3.58-2.6-5.43c-0.39-0.92-0.74-1.86-1.1-2.79
					c-0.29-0.74-0.5-2,0.39,1.18c-0.19-0.67-0.43-1.32-0.62-1.99c-0.57-1.94-1.04-3.91-1.39-5.91c-0.16-0.91-0.3-1.82-0.41-2.74
					c-0.07-0.6-0.12-1.21-0.19-1.82c-0.25-2.32,0.08,3.04,0.05,0.72c-0.03-1.99-0.04-3.97,0.12-5.95c0.08-0.98,0.18-1.95,0.31-2.93
					c0.15-1.09,1.18-5.08,0.07-0.96c1.06-3.95,2.16-7.76,3.93-11.47c0.16-0.35,0.35-0.69,0.51-1.03c-1.53,3.39-0.73,1.44-0.3,0.67
					c0.47-0.84,0.95-1.66,1.46-2.47c1.02-1.62,2.12-3.19,3.3-4.7c0.59-0.75,1.25-1.46,1.83-2.22c-2.35,3.1-0.39,0.45,0.35-0.3
					c1.48-1.5,3.05-2.92,4.69-4.25c0.75-0.6,1.51-1.19,2.29-1.75c0.45-0.33,0.93-0.73,1.42-0.99c-0.04,0.02-2.6,1.64-1.04,0.71
					c1.83-1.1,3.66-2.16,5.58-3.08c1.77-0.84,3.59-1.49,5.4-2.23c-3.65,1.49-0.5,0.2,0.5-0.08c1.14-0.32,2.3-0.59,3.46-0.83
					c1.86-0.38,3.75-0.66,5.64-0.84c0.93-0.09,2.5,0.04-1.01,0.04c0.51,0,1.02-0.05,1.53-0.06c1.13-0.03,2.27-0.01,3.4,0.02
					c6.11,0.21,12.33-4.35,12.5-10.83C337.16,75.2,332.71,69.07,326.17,68.85L326.17,68.85z"/>
			</g>
		</g>
	</g>
	<g>
		<g>
			<g>
				<g>
					<path class="st0" d="M788,372.11c0.85,1.62,0.22,4.03-1.27,5.29c-1.86,1.58-4.45,1.87-6.88,2.09
						c-32.66,2.96-50.82,4.55-83.6,3.47c-6.59-0.22-13.7-0.74-18.73-5c-6.68-5.66-7.21-15.6-7.21-24.36
						c0-12.75-0.01-28.47-0.01-34.84c0-3.25-1.25-13.09,4.52-12.46c4.41,0.7,4.34,5.78,4.31,9.13c0,0-0.22,20.27,0.06,41.54
						c0.07,5.09,0.42,10.8,4.18,14.23c3.41,3.11,8.5,3.29,13.11,3.29c21.13,0.02,27.6,0.03,48.73,0.05
						c-7.07-4.12-11.21-12.61-10.45-20.75c0.76-8.14,6.23-15.59,13.62-19.09s16.44-3.05,23.63,0.83c2.09,1.13,4.17,2.7,4.8,4.99
						s-0.99,5.23-3.36,5.08c-1.35-0.08-2.45-1.07-3.53-1.89c-5.51-4.18-13.66-4.69-19.44-0.89s-8.51,11.81-5.9,18.22
						c2.69,6.61,9.99,10.33,17.08,11.13c7.09,0.8,14.21-0.72,21.29-1.59c1.41-0.17,2.96-0.29,4.13,0.52
						C787.49,371.37,787.79,371.72,788,372.11z"/>
				</g>
				<path class="st0" d="M649.74,348.03c-0.65-6.87-2.8-13.7-7.56-18.6c-5.25-5.41-13.44-7.77-20.76-5.98
					c-5.21,1.27-9.95,4.58-12.73,9.16s-3.52,10.42-1.75,15.48c2.33,6.67,8.78,11.42,15.72,12.77c6.94,1.35,14.22-0.36,20.48-3.64
					c-0.49,6.66-5.98,12.1-12.19,14.57c-6.2,2.47-13.06,2.54-19.74,2.58c-6.95,0.04-13.89,0.08-20.84,0.12
					c-4.02,0.02-8.14,0.03-11.93-1.3c-3.8-1.33-7.27-4.28-8.1-8.21c-0.6-2.85-0.1-8.04-0.15-8.68c-0.18-2.39-1.08-5.16-3.55-5.97
					c-0.54-0.18-1.11-0.22-1.66-0.13c-4.8,0.77-3.77,7.25-3.7,10.58c0.08,3.74-1.05,7.68-3.85,10.16
					c-2.85,2.53-6.88,3.15-10.68,3.45c-4.61,0.37-9.25,0.44-13.88,0.21c-2.57-0.13-5.31-0.42-7.33-2.01
					c-3.21-2.53-3.34-7.16-3.43-11.05c-0.1-4.25-0.27-7.03-0.17-11.6c0.07-3.17,0.14-7.87,0.08-13.68
					c-0.02-2.02-0.44-4.43-1.73-6.05c-1.69-2.11-4.6-1.4-5.93,0.68c-1.6,2.5-1.49,5.73-0.93,8.65c-6.84,0.43-13.77,1.05-20.16,3.54
					c-2.38,0.93-4.66,2.13-6.73,3.62c-2.07,1.48-3.94,3.25-5.45,5.3c-0.75,1.02-1.41,2.1-1.95,3.24c-0.25,0.53-0.41,1-0.49,1.58
					c-0.08,0.59-0.39,1.14-0.56,1.71c-0.7,2.33-0.63,4.84,0,7.18c0.65,2.38,1.88,4.61,3.55,6.43c0.27,0.3,0.56,0.59,0.86,0.86
					c4.4,4.05,10.7,5.53,16.67,5.2c6.08-0.33,12.45-2.69,15.81-7.78c0.54,5.22,4.9,9.42,9.82,11.27c4.91,1.85,10.31,1.78,15.55,1.53
					c4.79-0.23,9.65-0.59,14.15-2.26c4.5-1.67,8.64-4.83,10.48-9.25c3.45,6.13,10.36,9.64,17.28,10.88
					c6.92,1.24,14.03,0.57,21.06,0.32c7.83-0.28,15.75-0.05,23.41-1.72c7.66-1.67,15.22-5.55,19.35-12.21
					c3.19-5.15,4.02-11.44,3.86-17.5C649.92,350.32,649.85,349.17,649.74,348.03z M628.36,353.8c-4.75,0-8.57-0.98-11.44-2.93
					c-2.88-1.95-4.31-4.69-4.31-8.22c0-3.38,1.3-6.22,3.88-8.5c2.59-2.29,5.88-3.43,9.88-3.43c9.93,0,15.47,6.57,16.63,19.7
					C639.41,352.67,634.53,353.8,628.36,353.8z M507.81,367.69c-3.93,3.41-8.39,3.71-9.42,3.75c-0.96,0.04-5.74,0.21-9.47-2.83
					c-2.3-1.88-3.46-4.28-3.46-7.19c0-4,2.26-7.45,6.79-10.37c4.51-2.93,11.6-4.45,21.25-4.61c0.18,1.69,0.33,4.05,0.16,6.87
					c-0.17,2.73-0.29,4.83-1.22,7.35C511.89,362.14,510.76,365.13,507.81,367.69z"/>
				<circle class="st0" cx="625.85" cy="310.94" r="5.42"/>
				<g>
					<circle class="st0" cx="516.87" cy="310.94" r="5.42"/>
					<circle class="st0" cx="502.35" cy="310.94" r="5.42"/>
				</g>
				<g>
					<circle class="st0" cx="566.17" cy="395.25" r="5.42"/>
					<circle class="st0" cx="551.65" cy="395.25" r="5.42"/>
				</g>
			</g>
		</g>
		<g>
			<path class="st0" d="M501.15,265.55c-0.85-0.02-1.69-0.08-2.52-0.16c-5.54-0.55-11.12-2.29-15.3-5.97
				c-4.17-3.68-6.68-9.53-5.4-14.94c0.78-3.3,2.88-6.19,5.5-8.34c2.62-2.15,5.75-3.61,8.95-4.7c10.25-3.5,21.32-3.45,32-5.23
				c0.14-3.96,0.2-8.2-1.97-11.51c-2.72-4.16-8.11-5.6-13.06-6.01c-3.22-0.27-6.5-0.24-9.62,0.59c-3.12,0.83-6.09,2.52-8.03,5.11
				c-0.83,1.1-1.45,2.34-2.32,3.41c-0.87,1.07-2.06,1.98-3.44,2.06c-1.6,0.1-3.07-1.18-3.47-2.69c-0.43-1.62,0.43-3.35,1.2-4.73
				c1.72-3.12,4.48-5.6,7.59-7.28c0.38-0.2,0.76-0.4,1.14-0.58c4.65-2.17,9.89-2.76,15.03-2.74c3.79,0.01,7.61,0.36,11.22,1.51
				c3.61,1.16,7,3.19,9.37,6.15c4.44,5.56,4.59,13.29,4.54,20.4c-0.07,9.5-0.13,19-0.2,28.51c-0.01,1.94-0.13,4.11-1.57,5.41
				c-1.05,0.94-2.68,1.16-3.95,0.54c-1.35-0.65-2.18-2.1-2.46-3.57c-0.29-1.47-0.11-2.99,0.06-4.48
				C518.91,262.96,509.87,265.81,501.15,265.55z M502.46,258.73c4.03,0,7.7-0.79,11.03-2.36c3.33-1.57,5.98-4,7.95-7.27
				c1.97-3.27,2.96-7.39,2.96-12.35v-4.02l-16.94,2.13c-7.18,0.87-12.61,2.36-16.28,4.49c-3.68,2.13-5.52,4.81-5.52,8.04
				c0,2.6,0.83,4.73,2.49,6.38c1.66,1.65,3.79,2.89,6.37,3.72S499.75,258.73,502.46,258.73z"/>
			<path class="st0" d="M559.06,261.78c-0.29-1.2-0.13-2.58-0.13-3.8c0-1.77,0-3.54,0-5.31c0-4.8,0-9.61,0-14.41
				c0-5.07,0-10.14,0-15.21c0-3.63,0-7.26,0-10.89c0-0.78,0-1.56,0-2.34c-3.7,0-7.41,0-11.11,0.01c-1.67,0-2.72-2.02-2.68-3.52
				c0.02-1.02,0.46-2.11,1.3-2.77c1.03-0.81,2.2-0.58,3.41-0.58c2.35,0,4.7,0,7.05,0c0.68,0,1.36,0,2.04,0v-6.74
				c0-3.55,0.55-6.78,1.64-9.69c1.09-2.91,3.06-5.24,5.91-6.97c2.84-1.73,6.94-2.6,12.28-2.6c0.98,0,1.96,0,2.94,0
				c1.5,0,3.12-0.43,4.55,0.23c1.37,0.64,2.31,2.1,2.12,3.63c-0.13,1.08-0.82,2.05-1.76,2.58c-0.95,0.54-2,0.41-3.05,0.41
				c-1.6,0-3.21,0-4.81,0c-4.64,0-7.77,1.12-9.39,3.37c-1.62,2.25-2.43,5.46-2.43,9.63v6.15c5.43,0,10.86,0.01,16.29-0.01
				c1.97-0.01,3.21,1.56,3.17,3.52c-0.04,1.77-1.26,3.36-3.07,3.35c-5.46-0.03-10.93-0.01-16.39-0.01c0,1.76,0,3.52,0,5.28
				c0,4.21,0,8.43,0,12.64c0,5.07,0,10.13,0,15.2c0,4.32,0,8.63,0,12.95c0,1.05,0,2.1,0,3.15c0,1.36,0.28,2.72-0.58,3.9
				c-0.79,1.09-2.07,1.76-3.42,1.76c-1.06,0-2.1-0.41-2.88-1.12C559.52,263.07,559.22,262.45,559.06,261.78z"/>
			<path class="st0" d="M599.16,261.8c-0.13-0.74-0.04-1.54-0.04-2.33c0-2.06,0-4.12,0-6.18c0-2.92,0-5.85,0-8.77
				c0-3.37,0-6.74,0-10.11c0-3.4,0-6.8,0-10.2c0-3.01,0-6.02,0-9.03c0-2.21,0-4.41,0-6.62c0-0.87-0.02-1.74,0-2.6
				c0.02-0.68,0.38-1.24,0.83-1.74c0.84-0.92,2.06-1.46,3.31-1.42c1.59,0.05,3.87,1.34,3.87,3.15c0,2.78,0,5.56,0,8.34
				c0,3.11,0,6.22,0,9.32c0,3.56,0,7.13,0,10.69c0,3.54,0,7.07,0,10.61c0,3.02,0,6.05,0,9.07c0,2.03,0,4.06,0,6.08
				c0,0.62,0.14,1.28-0.06,1.89c-0.18,0.57-0.6,1.11-1.02,1.53c-0.89,0.87-2.14,1.35-3.39,1.22c-1.06-0.11-2.14-0.73-2.85-1.52
				C599.43,262.75,599.24,262.29,599.16,261.8z"/>
			<path class="st0" d="M646.78,265.59c-4.2,0-8.08-0.79-11.62-2.36c-3.55-1.57-6.41-3.68-8.6-6.32c-2.19-2.64-3.28-5.61-3.28-8.92
				c0-5.36,2.41-9.65,7.22-12.88c4.81-3.23,11.07-5.32,18.78-6.26l20.75-2.6v-4.14c0-4.18-1.42-7.46-4.27-9.87
				c-2.84-2.4-7.37-3.61-13.59-3.61c-3.82,0-7.34,0.1-11.03,2.42c-3.21,2.02-4.95,4.76-5.78,6.32c-0.83,1.84-2.99,3.15-5,2.44
				c-3.44-1.22-2.37-4.99-1.1-7.4c1.28-2.44,2.97-3.82,4.27-4.91c1.93-1.61,4.42-2.97,7.49-4.08c3.06-1.1,6.78-1.65,11.16-1.65
				c5.16,0,9.43,0.63,12.8,1.89c3.37,1.26,5.99,2.89,7.88,4.9c1.88,2.01,3.22,4.24,4.01,6.68c0.79,2.44,1.18,4.85,1.18,7.21
				c0,3.59,0,7.19,0,10.78c0,6.49,0,12.99,0,19.48c0,1.86,0,3.71,0,5.57c0,1.33,0.36,2.82-0.22,4.07c-0.64,1.37-2.14,2.29-3.63,2.35
				c-2.2,0.08-4.14-1.55-4.15-3.74c-0.01-1.57,0-3.13,0-4.7c-1.05,1.42-2.54,2.84-4.47,4.25c-1.93,1.42-4.4,2.62-7.42,3.61
				C655.12,265.09,651.33,265.59,646.78,265.59z M648.1,258.73c4.03,0,7.7-0.79,11.03-2.36c3.33-1.57,5.98-4,7.95-7.27
				c1.97-3.27,2.96-7.39,2.96-12.35v-4.02l-16.94,2.13c-7.18,0.87-12.61,2.36-16.28,4.49c-3.68,2.13-5.52,4.81-5.52,8.04
				c0,2.6,0.83,4.73,2.49,6.38c1.66,1.65,3.79,2.89,6.37,3.72S645.38,258.73,648.1,258.73z"/>
			<circle class="st0" cx="603.12" cy="181.87" r="5.04"/>
		</g>
	</g>
	<g>
		<path class="st0" d="M178.35,475.81c-0.24-0.21-0.53-0.31-0.85-0.31c-0.3,0-0.57,0.11-0.82,0.32c-0.24,0.21-0.36,0.49-0.36,0.83
			c0,0.35,0.12,0.64,0.36,0.87c0.23,0.23,0.51,0.34,0.82,0.34c0.33,0,0.62-0.12,0.85-0.36c0.23-0.23,0.36-0.52,0.36-0.85
			C178.71,476.3,178.59,476.02,178.35,475.81z"/>
		<path class="st0" d="M387.17,476.65c0,0.33-0.12,0.62-0.36,0.85c-0.24,0.24-0.52,0.36-0.85,0.36c-0.31,0-0.58-0.12-0.82-0.34
			c-0.24-0.23-0.36-0.52-0.36-0.87c0-0.34,0.12-0.62,0.37-0.83c0.24-0.21,0.51-0.32,0.81-0.32c0.32,0,0.61,0.1,0.85,0.31
			C387.05,476.02,387.17,476.3,387.17,476.65z"/>
		<path class="st0" d="M614.09,475.81c-0.24-0.21-0.53-0.31-0.85-0.31c-0.3,0-0.57,0.11-0.82,0.32c-0.24,0.21-0.36,0.49-0.36,0.83
			c0,0.35,0.12,0.64,0.36,0.87c0.24,0.23,0.51,0.34,0.82,0.34c0.33,0,0.62-0.12,0.85-0.36c0.24-0.23,0.36-0.52,0.36-0.85
			C614.46,476.3,614.34,476.02,614.09,475.81z"/>
		<path class="st0" d="M761.74,476.65c0,0.33-0.12,0.62-0.36,0.85c-0.24,0.24-0.53,0.36-0.85,0.36c-0.31,0-0.59-0.12-0.82-0.34
			c-0.24-0.23-0.36-0.52-0.36-0.87c0-0.34,0.12-0.62,0.36-0.83c0.24-0.21,0.52-0.32,0.82-0.32c0.32,0,0.6,0.1,0.85,0.31
			S761.74,476.3,761.74,476.65z"/>
		<g>
			<rect x="759.76" y="482.22" class="st0" width="1.33" height="15.1"/>
			<path class="st0" d="M613.93,497.37h-1.33v-15.1h1.33V497.37z"/>
			<polygon class="st0" points="343.74,497.76 342.53,497.76 342.33,474.23 343.54,474.23 			"/>
			<polygon class="st0" points="477.16,497.76 475.76,497.76 475.53,474.23 476.93,474.23 			"/>
			<polygon class="st0" points="484.27,497.76 482.69,497.76 482.44,474.23 484.01,474.23 			"/>
			<polygon class="st0" points="423.87,497.8 422.41,497.8 422.17,474.23 423.64,474.23 			"/>
			<path class="st0" d="M13.15,479.23v2.64h4.21v1.31h-4.21v14.59h-1.43v-14.59H8.86v-1.31h2.86v-2.76c0-1.68,0.42-2.95,1.26-3.82
				c0.85-0.87,1.9-1.31,3.16-1.31c0.67,0,1.23,0.1,1.68,0.3v1.46c-0.39-0.3-0.96-0.45-1.74-0.45
				C14.13,475.29,13.15,476.6,13.15,479.23z"/>
			<path class="st0" d="M31.75,483.7c-1.31-1.48-3.1-2.22-5.37-2.22c-2.31,0-4.16,0.74-5.58,2.24c-1.41,1.49-2.12,3.55-2.12,6.19
				c0,2.44,0.68,4.43,2.03,5.95c1.35,1.53,3.18,2.29,5.5,2.29c2.33,0,4.16-0.77,5.5-2.3c1.34-1.53,2.01-3.54,2.01-6.01
				C33.72,487.23,33.06,485.18,31.75,483.7z M30.68,494.98c-1.03,1.24-2.51,1.86-4.42,1.86c-1.88,0-3.37-0.63-4.46-1.9
				c-1.08-1.26-1.63-2.93-1.63-5.01c0-2.24,0.55-4,1.67-5.26c1.11-1.26,2.61-1.9,4.48-1.9c1.88,0,3.34,0.61,4.37,1.82
				c1.03,1.21,1.54,2.95,1.54,5.22C32.23,492.02,31.71,493.74,30.68,494.98z"/>
			<path class="st0" d="M45.35,481.84v1.52c-0.48-0.34-1.04-0.51-1.68-0.51c-1.25,0-2.31,0.64-3.15,1.94
				c-0.85,1.29-1.27,3.13-1.27,5.51v7.47h-1.4v-15.9h1.4v3.53h0.06c0.36-1.21,0.93-2.16,1.72-2.83c0.78-0.67,1.7-1.01,2.73-1.01
				C44.36,481.55,44.89,481.65,45.35,481.84z"/>
			<path class="st0" d="M59.52,484.79c-1.16,1.34-1.74,3.08-1.74,5.21c0,2.06,0.53,3.71,1.59,4.97c1.06,1.25,2.46,1.88,4.2,1.88
				c1.59,0,2.98-0.43,4.16-1.27v1.49c-1.18,0.72-2.59,1.08-4.23,1.08c-2.16,0-3.91-0.74-5.23-2.23c-1.32-1.48-1.99-3.43-1.99-5.83
				c0-2.53,0.75-4.59,2.24-6.2c1.49-1.61,3.4-2.41,5.74-2.41c1.21,0,2.39,0.25,3.53,0.74v1.62c-1.14-0.7-2.39-1.06-3.74-1.06
				C62.18,482.78,60.68,483.45,59.52,484.79z"/>
			<path class="st0" d="M83.66,483.7c-1.31-1.48-3.1-2.22-5.37-2.22c-2.31,0-4.17,0.74-5.58,2.24c-1.41,1.49-2.12,3.55-2.12,6.19
				c0,2.44,0.68,4.43,2.02,5.95c1.35,1.53,3.18,2.29,5.5,2.29c2.33,0,4.16-0.77,5.5-2.3c1.34-1.53,2.01-3.54,2.01-6.01
				C85.63,487.23,84.97,485.18,83.66,483.7z M82.59,494.98c-1.03,1.24-2.51,1.86-4.42,1.86c-1.88,0-3.37-0.63-4.46-1.9
				c-1.08-1.26-1.63-2.93-1.63-5.01c0-2.24,0.56-4,1.67-5.26c1.11-1.26,2.6-1.9,4.47-1.9c1.88,0,3.34,0.61,4.37,1.82
				c1.03,1.21,1.54,2.95,1.54,5.22C84.14,492.02,83.62,493.74,82.59,494.98z"/>
			<path class="st0" d="M111.12,487.94v9.83h-1.43v-9.56c0-2-0.31-3.4-0.94-4.21c-0.62-0.81-1.62-1.21-2.97-1.21
				c-1.25,0-2.33,0.54-3.24,1.62c-0.91,1.08-1.37,2.43-1.37,4.05v9.32h-1.43v-9.67c0-3.54-1.34-5.31-4.03-5.31
				c-1.3,0-2.37,0.54-3.23,1.62s-1.29,2.48-1.29,4.2v9.16h-1.43v-15.9h1.43v2.64h0.06c1.11-2.01,2.73-3.02,4.86-3.02
				c1.16,0,2.15,0.33,2.97,1c0.82,0.67,1.38,1.54,1.67,2.63c0.5-1.15,1.21-2.04,2.14-2.68c0.93-0.63,1.93-0.95,3.02-0.95
				C109.38,481.48,111.12,483.63,111.12,487.94z"/>
			<path class="st0" d="M137.44,487.94v9.83h-1.43v-9.56c0-2-0.31-3.4-0.94-4.21c-0.63-0.81-1.62-1.21-2.98-1.21
				c-1.25,0-2.33,0.54-3.24,1.62c-0.91,1.08-1.37,2.43-1.37,4.05v9.32h-1.43v-9.67c0-3.54-1.35-5.31-4.04-5.31
				c-1.3,0-2.37,0.54-3.23,1.62c-0.86,1.08-1.29,2.48-1.29,4.2v9.16h-1.43v-15.9h1.43v2.64h0.06c1.11-2.01,2.73-3.02,4.86-3.02
				c1.16,0,2.15,0.33,2.97,1c0.82,0.67,1.38,1.54,1.67,2.63c0.5-1.15,1.21-2.04,2.14-2.68c0.93-0.63,1.93-0.95,3.02-0.95
				C135.7,481.48,137.44,483.63,137.44,487.94z"/>
			<path class="st0" d="M154.32,481.86v15.9h-1.43v-2.89h-0.06c-1.11,2.18-2.82,3.27-5.12,3.27c-3.76,0-5.63-2.36-5.63-7.09v-9.19
				h1.44v8.83c0,2.16,0.36,3.72,1.07,4.69s1.82,1.46,3.34,1.46c1.48,0,2.68-0.54,3.59-1.63c0.92-1.08,1.38-2.53,1.38-4.34v-9.01
				H154.32z"/>
			<path class="st0" d="M171.83,488.09v9.67h-1.43v-9.25c0-3.82-1.38-5.73-4.13-5.73c-1.53,0-2.79,0.56-3.78,1.69
				c-0.98,1.12-1.47,2.51-1.47,4.17v9.13h-1.43v-15.9h1.43v2.89h0.07c1.16-2.18,2.97-3.27,5.43-3.27c1.71,0,3.03,0.57,3.94,1.71
				C171.37,484.34,171.83,485.97,171.83,488.09z"/>
			<rect x="176.84" y="482.26" class="st0" width="1.36" height="15.1"/>
			<rect x="385.3" y="482.26" class="st0" width="1.33" height="15.1"/>
			<path class="st0" d="M185.61,483.17v10.49c0,1.1,0.17,1.89,0.52,2.39c0.35,0.49,0.93,0.73,1.76,0.73c0.59,0,1.23-0.19,1.91-0.57
				v1.33c-0.75,0.35-1.45,0.53-2.09,0.53c-2.35,0-3.53-1.41-3.53-4.22v-10.68h-2.85v-1.31h2.85v-4.13c0.23-0.08,0.46-0.16,0.71-0.25
				c0.25-0.07,0.49-0.15,0.71-0.23v4.61h4.19v1.31H185.61z"/>
			<path class="st0" d="M197.02,501.01c-0.58,1.43-1.22,2.49-1.92,3.18c-0.7,0.69-1.61,1.04-2.72,1.04c-0.47,0-0.88-0.07-1.24-0.22
				v-1.43c0.37,0.14,0.81,0.22,1.3,0.22c1.27,0,2.28-0.88,3.01-2.64l1.47-3.52l-6.02-15.77h1.6l4.8,12.95
				c0.1,0.28,0.18,0.49,0.22,0.64c0.04,0.2,0.09,0.37,0.14,0.53h0.06l0.37-1.07l5.12-13.04h1.55L197.02,501.01z"/>
			<path class="st0" d="M231.63,493.73c1.64-2.39,2.5-4.97,2.58-7.73h-1.49c-0.08,2.56-0.77,4.81-2.06,6.74
				c-3.01-2.85-5.28-5.09-6.83-6.74c1.84-0.84,3.19-1.76,4.05-2.76c0.86-1,1.29-2.21,1.29-3.62c0-1.31-0.42-2.38-1.27-3.22
				c-0.85-0.84-2.01-1.26-3.49-1.26c-1.61,0-2.93,0.5-3.95,1.5c-1.02,1-1.53,2.22-1.53,3.65c0,1.61,0.84,3.38,2.52,5.31
				c-3.44,1.53-5.16,3.72-5.16,6.58c0,1.74,0.61,3.17,1.83,4.29c1.23,1.13,2.93,1.69,5.11,1.69c2.88,0,5.36-1.1,7.44-3.31l3,2.92
				l2.22,0.03C234.82,496.82,233.4,495.46,231.63,493.73z M220.42,480.31c0-1.09,0.35-2.01,1.04-2.76c0.69-0.75,1.62-1.13,2.79-1.13
				c0.96,0,1.77,0.31,2.42,0.92c0.65,0.61,0.98,1.43,0.98,2.46c0,1.07-0.36,2-1.07,2.79s-1.96,1.59-3.77,2.39
				C221.23,483.2,220.42,481.64,220.42,480.31z M223.34,496.85c-1.73,0-3.09-0.45-4.08-1.35c-0.99-0.89-1.48-2.04-1.48-3.44
				c0-2.3,1.55-4.12,4.64-5.46c1.42,1.53,3.85,3.96,7.28,7.28C227.83,495.86,225.71,496.85,223.34,496.85z"/>
			<path class="st0" d="M260.04,483.57c-1.14-1.39-2.71-2.09-4.73-2.09c-1.27,0-2.44,0.32-3.5,0.95c-1.06,0.64-1.88,1.54-2.45,2.71
				h-0.06v-3.28h-1.43v23.21h1.43v-10.14h0.06c1.14,2.14,2.9,3.21,5.28,3.21c2.13,0,3.85-0.82,5.15-2.46
				c1.3-1.64,1.95-3.79,1.95-6.45C261.74,486.85,261.17,484.96,260.04,483.57z M258.73,494.76c-1.01,1.39-2.33,2.09-3.96,2.09
				c-1.63,0-2.95-0.57-3.96-1.72c-1-1.14-1.5-2.51-1.5-4.1v-2.01c0-1.68,0.51-3.13,1.52-4.38c1.01-1.24,2.45-1.86,4.3-1.86
				c1.55,0,2.8,0.59,3.73,1.76c0.93,1.17,1.39,2.75,1.39,4.73C260.25,491.54,259.74,493.37,258.73,494.76z"/>
			<path class="st0" d="M274.23,493.79c0,1.26-0.47,2.31-1.42,3.13c-0.95,0.82-2.25,1.23-3.92,1.23c-1.53,0-2.81-0.36-3.83-1.08
				v-1.72c0.54,0.46,1.19,0.83,1.95,1.1c0.77,0.27,1.43,0.4,1.99,0.4c2.49,0,3.74-1.02,3.74-3.06c0-0.7-0.27-1.3-0.82-1.8
				c-0.55-0.5-1.44-1.01-2.67-1.54c-1.52-0.66-2.59-1.35-3.2-2.06c-0.62-0.7-0.93-1.57-0.93-2.58c0-1.29,0.49-2.34,1.48-3.14
				c0.99-0.79,2.21-1.19,3.65-1.19c1.37,0,2.54,0.28,3.51,0.84v1.62c-1.18-0.77-2.4-1.15-3.66-1.15c-1.04,0-1.89,0.27-2.53,0.82
				c-0.64,0.54-0.96,1.25-0.96,2.12c0,0.76,0.2,1.37,0.61,1.84c0.4,0.47,1.3,1.01,2.67,1.62c1.66,0.75,2.79,1.44,3.41,2.08
				C273.91,491.89,274.23,492.73,274.23,493.79z"/>
			<path class="st0" d="M290.03,481.86l-7.75,19.14c-0.58,1.43-1.22,2.49-1.93,3.18c-0.7,0.69-1.61,1.04-2.71,1.04
				c-0.46,0-0.88-0.08-1.24-0.22v-1.43c0.38,0.15,0.81,0.22,1.31,0.22c1.27,0,2.28-0.88,3.01-2.64l1.47-3.53l-6.02-15.77h1.6
				l4.8,12.95c0.1,0.28,0.17,0.49,0.22,0.63c0.04,0.2,0.09,0.37,0.14,0.53h0.06l0.37-1.07l5.12-13.04H290.03z"/>
			<path class="st0" d="M295.08,484.79c-1.16,1.34-1.74,3.08-1.74,5.21c0,2.06,0.53,3.71,1.59,4.97c1.06,1.25,2.46,1.88,4.2,1.88
				c1.59,0,2.98-0.43,4.16-1.27v1.49c-1.18,0.72-2.59,1.08-4.22,1.08c-2.16,0-3.91-0.74-5.23-2.23c-1.32-1.48-1.99-3.43-1.99-5.83
				c0-2.53,0.74-4.59,2.24-6.2c1.49-1.61,3.4-2.41,5.74-2.41c1.21,0,2.39,0.25,3.52,0.74v1.62c-1.14-0.7-2.39-1.06-3.74-1.06
				C297.75,482.78,296.24,483.45,295.08,484.79z"/>
			<path class="st0" d="M319.53,487.9v9.86h-1.43v-9.53c0-1.88-0.34-3.26-1.02-4.14c-0.69-0.87-1.75-1.31-3.2-1.31
				c-1.37,0-2.57,0.54-3.6,1.6c-1.04,1.07-1.55,2.59-1.55,4.58v8.8h-1.43v-23.53h1.43v10.49h0.06c1.25-2.16,3.08-3.24,5.47-3.24
				c1.72,0,3.03,0.55,3.93,1.66C319.08,484.24,319.53,485.84,319.53,487.9z"/>
			<path class="st0" d="M336.43,483.7c-1.31-1.48-3.1-2.22-5.37-2.22c-2.31,0-4.17,0.74-5.58,2.24c-1.41,1.49-2.12,3.55-2.12,6.19
				c0,2.44,0.68,4.43,2.03,5.95c1.35,1.53,3.18,2.29,5.5,2.29c2.32,0,4.16-0.77,5.5-2.3c1.34-1.53,2.01-3.54,2.01-6.01
				C338.4,487.23,337.74,485.18,336.43,483.7z M335.36,494.98c-1.04,1.24-2.51,1.86-4.43,1.86c-1.88,0-3.37-0.63-4.45-1.9
				c-1.09-1.26-1.63-2.93-1.63-5.01c0-2.24,0.55-4,1.67-5.26c1.11-1.26,2.61-1.9,4.48-1.9c1.88,0,3.34,0.61,4.37,1.82
				c1.03,1.21,1.54,2.95,1.54,5.22C336.91,492.02,336.39,493.74,335.36,494.98z"/>
			<path class="st0" d="M361.16,483.7c-1.31-1.48-3.1-2.22-5.37-2.22c-2.31,0-4.17,0.74-5.58,2.24c-1.41,1.49-2.12,3.55-2.12,6.19
				c0,2.44,0.68,4.43,2.03,5.95c1.35,1.53,3.18,2.29,5.5,2.29c2.32,0,4.16-0.77,5.5-2.3c1.34-1.53,2.01-3.54,2.01-6.01
				C363.14,487.23,362.48,485.18,361.16,483.7z M360.09,494.98c-1.04,1.24-2.51,1.86-4.42,1.86c-1.89,0-3.37-0.63-4.46-1.9
				c-1.09-1.26-1.63-2.93-1.63-5.01c0-2.24,0.55-4,1.67-5.26c1.11-1.26,2.61-1.9,4.48-1.9c1.88,0,3.34,0.61,4.37,1.82
				c1.03,1.21,1.54,2.95,1.54,5.22C361.64,492.02,361.13,493.74,360.09,494.98z"/>
			<path class="st0" d="M378.55,481.86v2.52h-0.06c-1.06-1.93-2.75-2.9-5.09-2.9c-2.18,0-3.94,0.8-5.28,2.4
				c-1.34,1.61-2,3.68-2,6.21c0,2.54,0.62,4.51,1.85,5.93c1.24,1.42,2.84,2.13,4.79,2.13c2.57,0,4.47-1.08,5.73-3.24h0.06v2.07
				c0,4.63-2.19,6.95-6.58,6.95c-1.5,0-3.09-0.46-4.77-1.39v1.49c1.62,0.81,3.2,1.21,4.73,1.21c2.75,0,4.78-0.69,6.09-2.08
				c1.31-1.39,1.95-3.58,1.95-6.57v-14.72H378.55z M378.55,491.12c0,1.6-0.51,2.96-1.52,4.07c-1.01,1.11-2.37,1.66-4.08,1.66
				c-1.61,0-2.9-0.61-3.87-1.81c-0.98-1.2-1.47-2.89-1.47-5.07c0-2.16,0.53-3.9,1.6-5.22c1.07-1.31,2.47-1.97,4.22-1.97
				c1.52,0,2.76,0.52,3.7,1.54c0.94,1.02,1.42,2.24,1.42,3.65V491.12z"/>
			<path class="st0" d="M394.06,484.79c-1.16,1.34-1.74,3.08-1.74,5.21c0,2.06,0.53,3.71,1.59,4.97c1.06,1.25,2.46,1.88,4.2,1.88
				c1.6,0,2.98-0.43,4.16-1.27v1.49c-1.18,0.72-2.59,1.08-4.22,1.08c-2.16,0-3.91-0.74-5.23-2.23c-1.32-1.48-1.99-3.43-1.99-5.83
				c0-2.53,0.75-4.59,2.24-6.2c1.49-1.61,3.4-2.41,5.74-2.41c1.21,0,2.39,0.25,3.52,0.74v1.62c-1.14-0.7-2.38-1.06-3.74-1.06
				C396.72,482.78,395.21,483.45,394.06,484.79z"/>
			<path class="st0" d="M415.77,497.76v-3.18h-0.06c-0.51,1.09-1.25,1.95-2.21,2.6c-0.97,0.65-2.04,0.97-3.22,0.97
				c-1.51,0-2.71-0.42-3.59-1.27c-0.88-0.85-1.32-1.92-1.32-3.21c0-2.77,1.84-4.45,5.51-5.03l4.89-0.73c0-3.42-1.28-5.12-3.85-5.12
				c-1.75,0-3.45,0.7-5.11,2.11v-1.72c0.59-0.47,1.39-0.86,2.4-1.2c1.01-0.33,1.96-0.5,2.85-0.5c1.64,0,2.9,0.51,3.8,1.52
				c0.89,1.01,1.34,2.49,1.34,4.42v10.34H415.77z M411.4,489.84c-1.67,0.24-2.84,0.62-3.51,1.16c-0.67,0.53-1.01,1.4-1.01,2.6
				c0,0.94,0.31,1.72,0.94,2.33c0.62,0.61,1.5,0.92,2.61,0.92c1.53,0,2.8-0.57,3.82-1.7c1.01-1.13,1.52-2.6,1.52-4.39v-1.55
				L411.4,489.84z"/>
			<path class="st0" d="M456.19,481.86l-4.94,15.9h-1.33l-3.46-11.98c-0.09-0.33-0.18-0.78-0.25-1.34h-0.08
				c-0.02,0.24-0.12,0.67-0.31,1.31l-3.88,12.02h-1.34l-4.79-15.9h1.58l3.7,12.68c0.09,0.33,0.16,0.78,0.22,1.34h0.13
				c0.02-0.3,0.12-0.75,0.29-1.34l4.04-12.68h0.98l3.6,12.68c0.08,0.3,0.15,0.75,0.22,1.34h0.13c0-0.3,0.09-0.75,0.26-1.34
				l3.77-12.68H456.19z"/>
			<path class="st0" d="M471.6,489.24c0-2.4-0.53-4.3-1.59-5.68c-1.05-1.39-2.57-2.08-4.55-2.08c-2.11,0-3.83,0.79-5.15,2.38
				c-1.32,1.59-1.98,3.55-1.98,5.86c0,2.68,0.63,4.76,1.9,6.23c1.26,1.47,2.92,2.2,4.97,2.2c2.03,0,3.86-0.58,5.51-1.75v-1.52
				c-1.7,1.31-3.43,1.97-5.22,1.97c-1.76,0-3.14-0.62-4.15-1.85c-1.01-1.23-1.51-2.94-1.51-5.12h11.77V489.24z M459.89,488.57
				c0.23-1.86,0.83-3.3,1.81-4.29c0.98-1,2.21-1.5,3.7-1.5c1.44,0,2.56,0.51,3.38,1.52c0.82,1.01,1.26,2.44,1.32,4.27H459.89z"/>
			<path class="st0" d="M501.38,488.09v9.67h-1.43v-9.25c0-3.82-1.38-5.73-4.13-5.73c-1.53,0-2.79,0.56-3.78,1.69
				c-0.98,1.12-1.47,2.51-1.47,4.17v9.13h-1.43v-15.9h1.43v2.89h0.07c1.16-2.18,2.97-3.27,5.43-3.27c1.71,0,3.03,0.57,3.94,1.71
				C500.93,484.34,501.38,485.97,501.38,488.09z"/>
			<path class="st0" d="M518.46,489.24c0-2.4-0.53-4.3-1.58-5.68c-1.06-1.39-2.57-2.08-4.55-2.08c-2.11,0-3.83,0.79-5.15,2.38
				c-1.32,1.59-1.98,3.55-1.98,5.86c0,2.68,0.63,4.76,1.89,6.23c1.26,1.47,2.92,2.2,4.97,2.2c2.03,0,3.86-0.58,5.51-1.75v-1.52
				c-1.7,1.31-3.43,1.97-5.21,1.97c-1.76,0-3.15-0.62-4.16-1.85c-1.01-1.23-1.51-2.94-1.51-5.12h11.77V489.24z M506.76,488.57
				c0.23-1.86,0.83-3.3,1.81-4.29c0.98-1,2.21-1.5,3.7-1.5c1.44,0,2.56,0.51,3.38,1.52c0.82,1.01,1.26,2.44,1.32,4.27H506.76z"/>
			<path class="st0" d="M530.94,493.79c0,1.26-0.47,2.31-1.42,3.13c-0.95,0.82-2.25,1.23-3.92,1.23c-1.53,0-2.81-0.36-3.83-1.08
				v-1.72c0.54,0.46,1.19,0.83,1.95,1.1c0.77,0.27,1.43,0.4,1.99,0.4c2.49,0,3.74-1.02,3.74-3.06c0-0.7-0.27-1.3-0.82-1.8
				c-0.55-0.5-1.44-1.01-2.67-1.54c-1.52-0.66-2.59-1.35-3.21-2.06c-0.62-0.7-0.92-1.57-0.92-2.58c0-1.29,0.49-2.34,1.48-3.14
				c0.99-0.79,2.21-1.19,3.66-1.19c1.37,0,2.54,0.28,3.51,0.84v1.62c-1.18-0.77-2.4-1.15-3.66-1.15c-1.05,0-1.89,0.27-2.53,0.82
				c-0.64,0.54-0.96,1.25-0.96,2.12c0,0.76,0.2,1.37,0.61,1.84c0.4,0.47,1.3,1.01,2.67,1.62c1.65,0.75,2.79,1.44,3.41,2.08
				C530.63,491.89,530.94,492.73,530.94,493.79z"/>
			<path class="st0" d="M543.48,493.79c0,1.26-0.47,2.31-1.42,3.13c-0.95,0.82-2.25,1.23-3.92,1.23c-1.53,0-2.81-0.36-3.83-1.08
				v-1.72c0.54,0.46,1.19,0.83,1.95,1.1c0.77,0.27,1.43,0.4,1.99,0.4c2.49,0,3.74-1.02,3.74-3.06c0-0.7-0.27-1.3-0.82-1.8
				c-0.55-0.5-1.44-1.01-2.67-1.54c-1.52-0.66-2.59-1.35-3.21-2.06c-0.62-0.7-0.92-1.57-0.92-2.58c0-1.29,0.49-2.34,1.48-3.14
				c0.99-0.79,2.21-1.19,3.66-1.19c1.37,0,2.54,0.28,3.51,0.84v1.62c-1.18-0.77-2.4-1.15-3.66-1.15c-1.05,0-1.89,0.27-2.53,0.82
				c-0.64,0.54-0.96,1.25-0.96,2.12c0,0.76,0.2,1.37,0.61,1.84c0.4,0.47,1.3,1.01,2.67,1.62c1.65,0.75,2.79,1.44,3.41,2.08
				S543.48,492.73,543.48,493.79z"/>
			<path class="st0" d="M564.91,493.79c0,1.26-0.47,2.31-1.42,3.13c-0.95,0.82-2.25,1.23-3.92,1.23c-1.53,0-2.81-0.36-3.83-1.08
				v-1.72c0.54,0.46,1.19,0.83,1.95,1.1c0.77,0.27,1.43,0.4,1.99,0.4c2.49,0,3.74-1.02,3.74-3.06c0-0.7-0.27-1.3-0.82-1.8
				c-0.55-0.5-1.44-1.01-2.67-1.54c-1.52-0.66-2.59-1.35-3.21-2.06c-0.62-0.7-0.92-1.57-0.92-2.58c0-1.29,0.49-2.34,1.48-3.14
				c0.99-0.79,2.21-1.19,3.66-1.19c1.37,0,2.54,0.28,3.51,0.84v1.62c-1.18-0.77-2.4-1.15-3.66-1.15c-1.05,0-1.89,0.27-2.53,0.82
				c-0.64,0.54-0.96,1.25-0.96,2.12c0,0.76,0.2,1.37,0.61,1.84c0.4,0.47,1.3,1.01,2.67,1.62c1.65,0.75,2.79,1.44,3.41,2.08
				S564.91,492.73,564.91,493.79z"/>
			<path class="st0" d="M581.2,489.24c0-2.4-0.53-4.3-1.58-5.68c-1.06-1.39-2.57-2.08-4.55-2.08c-2.11,0-3.83,0.79-5.14,2.38
				c-1.32,1.59-1.98,3.55-1.98,5.86c0,2.68,0.63,4.76,1.89,6.23c1.26,1.47,2.92,2.2,4.97,2.2c2.03,0,3.86-0.58,5.51-1.75v-1.52
				c-1.7,1.31-3.44,1.97-5.22,1.97c-1.76,0-3.15-0.62-4.15-1.85c-1.01-1.23-1.52-2.94-1.52-5.12h11.77V489.24z M569.49,488.57
				c0.23-1.86,0.83-3.3,1.81-4.29c0.98-1,2.21-1.5,3.7-1.5c1.44,0,2.57,0.51,3.39,1.52c0.82,1.01,1.26,2.44,1.32,4.27H569.49z"/>
			<path class="st0" d="M592.83,481.84v1.52c-0.47-0.34-1.03-0.51-1.68-0.51c-1.25,0-2.3,0.64-3.15,1.94
				c-0.85,1.29-1.27,3.13-1.27,5.51v7.47h-1.4v-15.9h1.4v3.53h0.06c0.36-1.21,0.94-2.16,1.72-2.83c0.79-0.67,1.7-1.01,2.73-1.01
				C591.83,481.55,592.36,481.65,592.83,481.84z"/>
			<path class="st0" d="M603.17,497.76h-1.3l-6.15-15.9h1.6l4.73,12.65c0.23,0.61,0.39,1.16,0.48,1.66h0.06
				c0.13-0.65,0.28-1.18,0.45-1.6l4.89-12.71h1.55L603.17,497.76z"/>
			<path class="st0" d="M621.34,484.79c-1.16,1.34-1.74,3.08-1.74,5.21c0,2.06,0.53,3.71,1.59,4.97c1.06,1.25,2.46,1.88,4.2,1.88
				c1.6,0,2.98-0.43,4.16-1.27v1.49c-1.18,0.72-2.59,1.08-4.22,1.08c-2.16,0-3.91-0.74-5.23-2.23c-1.32-1.48-1.99-3.43-1.99-5.83
				c0-2.53,0.75-4.59,2.24-6.2s3.4-2.41,5.74-2.41c1.21,0,2.39,0.25,3.53,0.74v1.62c-1.14-0.7-2.39-1.06-3.74-1.06
				C624.01,482.78,622.5,483.45,621.34,484.79z"/>
			<path class="st0" d="M633.9,489.88c0,2.18,0.5,3.89,1.51,5.12c1.01,1.23,2.39,1.85,4.15,1.85c1.78,0,3.52-0.66,5.22-1.97v1.52
				c-1.65,1.17-3.48,1.75-5.51,1.75c-2.05,0-3.7-0.73-4.97-2.2c-1.26-1.47-1.89-3.54-1.89-6.22c0-2.32,0.66-4.27,1.98-5.86
				c1.32-1.59,3.03-2.38,5.14-2.38c1.98,0,3.49,0.69,4.55,2.08c1.06,1.39,1.58,3.28,1.58,5.68v0.64H633.9z M644.18,488.57
				c-0.06-1.83-0.5-3.25-1.32-4.27c-0.82-1.01-1.95-1.52-3.38-1.52c-1.49,0-2.72,0.5-3.7,1.5c-0.98,1-1.58,2.43-1.81,4.29H644.18z"
				/>
			<path class="st0" d="M658.16,493.79c0,1.26-0.47,2.31-1.42,3.13c-0.94,0.82-2.25,1.23-3.92,1.23c-1.53,0-2.81-0.36-3.83-1.08
				v-1.72c0.54,0.46,1.19,0.83,1.95,1.1c0.77,0.27,1.43,0.4,1.99,0.4c2.49,0,3.74-1.02,3.74-3.06c0-0.7-0.27-1.3-0.82-1.8
				c-0.55-0.5-1.44-1.01-2.67-1.54c-1.52-0.66-2.59-1.35-3.2-2.06c-0.62-0.7-0.93-1.57-0.93-2.58c0-1.29,0.49-2.34,1.48-3.14
				c0.99-0.79,2.21-1.19,3.65-1.19c1.37,0,2.54,0.28,3.51,0.84v1.62c-1.18-0.77-2.4-1.15-3.66-1.15c-1.04,0-1.89,0.27-2.53,0.82
				c-0.64,0.54-0.96,1.25-0.96,2.12c0,0.76,0.2,1.37,0.61,1.84c0.4,0.47,1.3,1.01,2.67,1.62c1.66,0.75,2.79,1.44,3.41,2.08
				C657.84,491.89,658.16,492.73,658.16,493.79z"/>
			<path class="st0" d="M686.23,493.73c1.65-2.39,2.51-4.97,2.58-7.73h-1.49c-0.08,2.56-0.77,4.81-2.07,6.74
				c-3-2.85-5.28-5.09-6.83-6.74c1.84-0.84,3.19-1.76,4.05-2.76c0.86-1,1.29-2.21,1.29-3.62c0-1.31-0.43-2.38-1.27-3.22
				c-0.85-0.84-2.01-1.26-3.49-1.26c-1.62,0-2.93,0.5-3.95,1.5c-1.02,1-1.53,2.22-1.53,3.65c0,1.61,0.84,3.38,2.51,5.31
				c-3.43,1.53-5.15,3.72-5.15,6.58c0,1.74,0.61,3.17,1.83,4.29c1.22,1.13,2.93,1.69,5.11,1.69c2.87,0,5.35-1.1,7.43-3.31l3,2.92
				l2.22,0.03C689.41,496.82,688,495.46,686.23,493.73z M675.02,480.31c0-1.09,0.34-2.01,1.04-2.76c0.69-0.75,1.62-1.13,2.79-1.13
				c0.96,0,1.77,0.31,2.42,0.92c0.65,0.61,0.98,1.43,0.98,2.46c0,1.07-0.36,2-1.06,2.79c-0.71,0.8-1.97,1.59-3.77,2.39
				C675.82,483.2,675.02,481.64,675.02,480.31z M677.94,496.85c-1.73,0-3.08-0.45-4.08-1.35c-0.99-0.89-1.48-2.04-1.48-3.44
				c0-2.3,1.54-4.12,4.64-5.46c1.42,1.53,3.85,3.96,7.28,7.28C682.43,495.86,680.31,496.85,677.94,496.85z"/>
			<path class="st0" d="M710.83,493.79c0,1.26-0.47,2.31-1.42,3.13c-0.94,0.82-2.25,1.23-3.92,1.23c-1.53,0-2.81-0.36-3.84-1.08
				v-1.72c0.54,0.46,1.19,0.83,1.96,1.1c0.77,0.27,1.43,0.4,1.99,0.4c2.49,0,3.74-1.02,3.74-3.06c0-0.7-0.28-1.3-0.82-1.8
				c-0.55-0.5-1.44-1.01-2.67-1.54c-1.52-0.66-2.59-1.35-3.21-2.06c-0.62-0.7-0.92-1.57-0.92-2.58c0-1.29,0.49-2.34,1.48-3.14
				c0.99-0.79,2.21-1.19,3.66-1.19c1.37,0,2.54,0.28,3.51,0.84v1.62c-1.18-0.77-2.4-1.15-3.66-1.15c-1.05,0-1.89,0.27-2.53,0.82
				c-0.64,0.54-0.96,1.25-0.96,2.12c0,0.76,0.2,1.37,0.61,1.84c0.4,0.47,1.29,1.01,2.67,1.62c1.66,0.75,2.8,1.44,3.42,2.08
				C710.52,491.89,710.83,492.73,710.83,493.79z"/>
			<path class="st0" d="M717.1,483.17v10.49c0,1.1,0.17,1.89,0.52,2.39c0.35,0.49,0.93,0.73,1.76,0.73c0.59,0,1.23-0.19,1.91-0.57
				v1.33c-0.75,0.35-1.44,0.53-2.09,0.53c-2.35,0-3.53-1.41-3.53-4.22v-10.68h-2.85v-1.31h2.85v-4.13c0.23-0.08,0.46-0.16,0.71-0.25
				c0.25-0.07,0.49-0.15,0.71-0.23v4.61h4.19v1.31H717.1z"/>
			<path class="st0" d="M736.56,481.86v15.9h-1.43v-2.89h-0.07c-1.1,2.18-2.81,3.27-5.12,3.27c-3.76,0-5.63-2.36-5.63-7.09v-9.19
				h1.45v8.83c0,2.16,0.35,3.72,1.06,4.69s1.83,1.46,3.35,1.46c1.48,0,2.68-0.54,3.59-1.63c0.92-1.08,1.38-2.53,1.38-4.34v-9.01
				H736.56z"/>
			<path class="st0" d="M753.12,474.23v10.18h-0.06c-1.01-1.96-2.71-2.93-5.09-2.93c-2.15,0-3.9,0.79-5.25,2.38
				c-1.35,1.59-2.02,3.67-2.02,6.24c0,2.51,0.62,4.48,1.85,5.91c1.23,1.43,2.83,2.14,4.79,2.14c1.27,0,2.41-0.3,3.43-0.88
				c1.01-0.59,1.78-1.39,2.3-2.39h0.06v2.89h1.43v-23.53H753.12z M753.12,491.06c0,1.61-0.5,2.98-1.49,4.1
				c-0.99,1.12-2.39,1.69-4.2,1.69c-1.54,0-2.8-0.6-3.78-1.79c-0.97-1.2-1.47-2.89-1.47-5.09c0-2.24,0.54-3.99,1.63-5.27
				c1.09-1.28,2.47-1.92,4.13-1.92c1.58,0,2.84,0.52,3.78,1.54c0.94,1.03,1.41,2.29,1.41,3.77V491.06z"/>
			<path class="st0" d="M778.65,489.24c0-2.4-0.53-4.3-1.58-5.68c-1.06-1.39-2.57-2.08-4.55-2.08c-2.11,0-3.83,0.79-5.15,2.38
				c-1.32,1.59-1.98,3.55-1.98,5.86c0,2.68,0.63,4.76,1.89,6.23s2.92,2.2,4.97,2.2c2.03,0,3.86-0.58,5.51-1.75v-1.52
				c-1.7,1.31-3.43,1.97-5.21,1.97c-1.76,0-3.15-0.62-4.15-1.85c-1.01-1.23-1.52-2.94-1.52-5.12h11.77V489.24z M766.95,488.57
				c0.23-1.86,0.83-3.3,1.81-4.29c0.98-1,2.21-1.5,3.7-1.5c1.44,0,2.56,0.51,3.39,1.52c0.82,1.01,1.25,2.44,1.32,4.27H766.95z"/>
			<path class="st0" d="M791.14,493.79c0,1.26-0.47,2.31-1.42,3.13c-0.94,0.82-2.25,1.23-3.92,1.23c-1.53,0-2.81-0.36-3.83-1.08
				v-1.72c0.54,0.46,1.19,0.83,1.95,1.1c0.77,0.27,1.43,0.4,1.99,0.4c2.5,0,3.74-1.02,3.74-3.06c0-0.7-0.27-1.3-0.82-1.8
				c-0.55-0.5-1.44-1.01-2.67-1.54c-1.52-0.66-2.59-1.35-3.2-2.06c-0.62-0.7-0.92-1.57-0.92-2.58c0-1.29,0.49-2.34,1.48-3.14
				c0.99-0.79,2.21-1.19,3.65-1.19c1.37,0,2.54,0.28,3.51,0.84v1.62c-1.18-0.77-2.4-1.15-3.66-1.15c-1.04,0-1.89,0.27-2.53,0.82
				c-0.64,0.54-0.96,1.25-0.96,2.12c0,0.76,0.2,1.37,0.61,1.84c0.4,0.47,1.3,1.01,2.67,1.62c1.66,0.75,2.79,1.44,3.41,2.08
				C790.82,491.89,791.14,492.73,791.14,493.79z"/>
		</g>
		<g>
			<g>
				<path class="st0" d="M107.22,444.22c0,0.32-0.12,0.62-0.36,0.85c-0.24,0.23-0.52,0.36-0.85,0.36c-0.31,0-0.58-0.12-0.82-0.34
					c-0.24-0.23-0.36-0.52-0.36-0.87c0-0.34,0.12-0.62,0.36-0.83c0.24-0.21,0.52-0.32,0.82-0.32c0.32,0,0.6,0.1,0.84,0.31
					C107.1,443.59,107.22,443.87,107.22,444.22z"/>
				<path class="st0" d="M110.74,444.23c0,0.32-0.12,0.62-0.36,0.85c-0.24,0.23-0.52,0.36-0.85,0.36c-0.31,0-0.58-0.12-0.82-0.34
					c-0.24-0.23-0.36-0.51-0.36-0.86c0-0.35,0.12-0.62,0.36-0.84c0.24-0.21,0.52-0.32,0.82-0.32c0.32,0,0.6,0.1,0.85,0.31
					C110.62,443.59,110.74,443.87,110.74,444.23z"/>
			</g>
			<g>
				<path class="st0" d="M54.27,463.13c0,0.32-0.12,0.62-0.36,0.85c-0.24,0.23-0.52,0.36-0.85,0.36c-0.31,0-0.58-0.12-0.82-0.34
					c-0.24-0.23-0.36-0.52-0.36-0.87c0-0.34,0.12-0.62,0.36-0.83c0.24-0.21,0.52-0.32,0.82-0.32c0.32,0,0.6,0.1,0.84,0.31
					C54.15,462.5,54.27,462.78,54.27,463.13z"/>
				<path class="st0" d="M57.79,463.14c0,0.32-0.12,0.62-0.36,0.85c-0.24,0.23-0.52,0.36-0.85,0.36c-0.31,0-0.58-0.12-0.82-0.34
					c-0.24-0.23-0.36-0.51-0.36-0.86c0-0.35,0.12-0.62,0.36-0.84c0.24-0.21,0.52-0.32,0.82-0.32c0.32,0,0.6,0.1,0.85,0.31
					C57.67,462.5,57.79,462.78,57.79,463.14z"/>
			</g>
			<g>
				<path class="st0" d="M18.11,439.18c0,0.32-0.12,0.62-0.36,0.85c-0.24,0.23-0.52,0.36-0.85,0.36c-0.31,0-0.58-0.12-0.82-0.34
					c-0.24-0.23-0.36-0.52-0.36-0.87c0-0.34,0.12-0.62,0.36-0.83c0.24-0.21,0.52-0.32,0.82-0.32c0.32,0,0.6,0.1,0.84,0.31
					S18.11,438.82,18.11,439.18z"/>
				<path class="st0" d="M21.63,439.18c0,0.32-0.12,0.62-0.36,0.85s-0.52,0.36-0.85,0.36c-0.31,0-0.58-0.12-0.82-0.34
					c-0.24-0.23-0.36-0.51-0.36-0.86c0-0.35,0.12-0.62,0.36-0.84c0.24-0.21,0.52-0.32,0.82-0.32c0.32,0,0.6,0.1,0.85,0.31
					S21.63,438.83,21.63,439.18z"/>
			</g>
			<g>
				<path class="st0" d="M126.22,463.14c0,0.32-0.12,0.62-0.36,0.85c-0.24,0.23-0.52,0.36-0.85,0.36c-0.31,0-0.58-0.12-0.82-0.34
					c-0.24-0.23-0.36-0.51-0.36-0.86c0-0.35,0.12-0.62,0.36-0.84c0.24-0.21,0.52-0.32,0.82-0.32c0.32,0,0.6,0.1,0.85,0.31
					C126.1,462.5,126.22,462.78,126.22,463.14z"/>
			</g>
			<g>
				<path class="st0" d="M255.36,463.13c0,0.32-0.12,0.62-0.36,0.85c-0.24,0.23-0.52,0.36-0.85,0.36c-0.31,0-0.58-0.12-0.82-0.34
					c-0.24-0.23-0.36-0.52-0.36-0.87c0-0.34,0.12-0.62,0.36-0.83s0.52-0.32,0.82-0.32c0.32,0,0.6,0.1,0.84,0.31
					C255.24,462.5,255.36,462.78,255.36,463.13z"/>
				<path class="st0" d="M258.88,463.14c0,0.32-0.12,0.62-0.36,0.85c-0.24,0.23-0.52,0.36-0.85,0.36c-0.31,0-0.58-0.12-0.82-0.34
					c-0.24-0.23-0.36-0.51-0.36-0.86c0-0.35,0.12-0.62,0.36-0.84c0.24-0.21,0.52-0.32,0.82-0.32c0.32,0,0.6,0.1,0.85,0.31
					C258.76,462.5,258.88,462.78,258.88,463.14z"/>
			</g>
			<g>
				<path class="st0" d="M219.1,439.18c0,0.32-0.12,0.62-0.36,0.85c-0.24,0.23-0.52,0.36-0.85,0.36c-0.31,0-0.58-0.12-0.82-0.34
					c-0.24-0.23-0.36-0.52-0.36-0.87c0-0.34,0.12-0.62,0.36-0.83c0.24-0.21,0.52-0.32,0.82-0.32c0.32,0,0.6,0.1,0.84,0.31
					C218.98,438.54,219.1,438.82,219.1,439.18z"/>
				<path class="st0" d="M222.63,439.18c0,0.32-0.12,0.62-0.36,0.85c-0.24,0.23-0.52,0.36-0.85,0.36c-0.31,0-0.58-0.12-0.82-0.34
					c-0.24-0.23-0.36-0.51-0.36-0.86c0-0.35,0.12-0.62,0.36-0.84c0.24-0.21,0.52-0.32,0.82-0.32c0.32,0,0.6,0.1,0.85,0.31
					C222.5,438.54,222.63,438.83,222.63,439.18z"/>
			</g>
			<g>
				<path class="st0" d="M315.33,443.82c0,0.32-0.12,0.62-0.36,0.85c-0.24,0.23-0.52,0.36-0.85,0.36c-0.31,0-0.58-0.12-0.82-0.34
					c-0.24-0.23-0.36-0.51-0.36-0.86c0-0.35,0.12-0.62,0.36-0.84c0.24-0.21,0.52-0.32,0.82-0.32c0.32,0,0.6,0.1,0.85,0.31
					C315.21,443.18,315.33,443.47,315.33,443.82z"/>
			</g>
			<g>
				<path class="st0" d="M300.84,442.96c0,0.32-0.12,0.62-0.36,0.85c-0.24,0.23-0.52,0.36-0.85,0.36c-0.31,0-0.58-0.12-0.82-0.34
					c-0.24-0.23-0.36-0.51-0.36-0.86c0-0.35,0.12-0.62,0.36-0.84c0.24-0.21,0.52-0.32,0.82-0.32c0.32,0,0.6,0.1,0.85,0.31
					C300.71,442.33,300.84,442.61,300.84,442.96z"/>
			</g>
			<g>
				<path class="st0" d="M402.04,463.13c0,0.32-0.12,0.62-0.36,0.85c-0.24,0.23-0.52,0.36-0.85,0.36c-0.31,0-0.58-0.12-0.82-0.34
					c-0.24-0.23-0.36-0.52-0.36-0.87c0-0.34,0.12-0.62,0.36-0.83s0.52-0.32,0.82-0.32c0.32,0,0.6,0.1,0.84,0.31
					S402.04,462.78,402.04,463.13z"/>
				<path class="st0" d="M405.56,463.14c0,0.32-0.12,0.62-0.36,0.85c-0.24,0.23-0.52,0.36-0.85,0.36c-0.31,0-0.58-0.12-0.82-0.34
					c-0.24-0.23-0.36-0.51-0.36-0.86c0-0.35,0.12-0.62,0.36-0.84c0.24-0.21,0.52-0.32,0.82-0.32c0.32,0,0.6,0.1,0.85,0.31
					C405.44,462.5,405.56,462.78,405.56,463.14z"/>
			</g>
			<g>
				<path class="st0" d="M365.55,439.18c0,0.32-0.12,0.62-0.36,0.85s-0.52,0.36-0.85,0.36c-0.31,0-0.58-0.12-0.82-0.34
					c-0.24-0.23-0.36-0.52-0.36-0.87c0-0.34,0.12-0.62,0.36-0.83c0.24-0.21,0.52-0.32,0.82-0.32c0.32,0,0.6,0.1,0.84,0.31
					S365.55,438.82,365.55,439.18z"/>
				<path class="st0" d="M369.07,439.18c0,0.32-0.12,0.62-0.36,0.85s-0.52,0.36-0.85,0.36c-0.31,0-0.58-0.12-0.82-0.34
					c-0.24-0.23-0.36-0.51-0.36-0.86c0-0.35,0.12-0.62,0.36-0.84c0.24-0.21,0.52-0.32,0.82-0.32c0.32,0,0.6,0.1,0.85,0.31
					S369.07,438.83,369.07,439.18z"/>
			</g>
			<g>
				<path class="st0" d="M416.11,442.96c0,0.32-0.12,0.62-0.36,0.85c-0.24,0.23-0.52,0.36-0.85,0.36c-0.31,0-0.58-0.12-0.82-0.34
					c-0.24-0.23-0.36-0.51-0.36-0.86c0-0.35,0.12-0.62,0.36-0.84c0.24-0.21,0.52-0.32,0.82-0.32c0.32,0,0.6,0.1,0.85,0.31
					S416.11,442.61,416.11,442.96z"/>
			</g>
			<g>
				<path class="st0" d="M505.72,444.22c0,0.32-0.12,0.62-0.36,0.85c-0.24,0.23-0.52,0.36-0.85,0.36c-0.31,0-0.58-0.12-0.82-0.34
					c-0.24-0.23-0.36-0.52-0.36-0.87c0-0.34,0.12-0.62,0.36-0.83c0.24-0.21,0.52-0.32,0.82-0.32c0.32,0,0.6,0.1,0.84,0.31
					C505.6,443.59,505.72,443.87,505.72,444.22z"/>
				<path class="st0" d="M509.24,444.23c0,0.32-0.12,0.62-0.36,0.85s-0.52,0.36-0.85,0.36c-0.31,0-0.58-0.12-0.82-0.34
					c-0.24-0.23-0.36-0.51-0.36-0.86c0-0.35,0.12-0.62,0.36-0.84c0.24-0.21,0.52-0.32,0.82-0.32c0.32,0,0.6,0.1,0.85,0.31
					S509.24,443.87,509.24,444.23z"/>
			</g>
			<g>
				<path class="st0" d="M772.1,442.96c0,0.32-0.12,0.62-0.36,0.85c-0.24,0.23-0.52,0.36-0.85,0.36c-0.31,0-0.58-0.12-0.82-0.34
					c-0.24-0.23-0.36-0.51-0.36-0.86c0-0.35,0.12-0.62,0.36-0.84c0.24-0.21,0.52-0.32,0.82-0.32c0.32,0,0.6,0.1,0.85,0.31
					C771.98,442.33,772.1,442.61,772.1,442.96z"/>
			</g>
			<g>
				<path class="st0" d="M673.89,444.33c0,0.32-0.12,0.62-0.36,0.85s-0.52,0.36-0.85,0.36c-0.31,0-0.58-0.12-0.82-0.34
					c-0.24-0.23-0.36-0.52-0.36-0.87c0-0.34,0.12-0.62,0.36-0.83s0.52-0.32,0.82-0.32c0.32,0,0.6,0.1,0.84,0.31
					S673.89,443.97,673.89,444.33z"/>
				<path class="st0" d="M677.41,444.33c0,0.32-0.12,0.62-0.36,0.85c-0.24,0.23-0.52,0.36-0.85,0.36c-0.31,0-0.58-0.12-0.82-0.34
					c-0.24-0.23-0.36-0.51-0.36-0.86c0-0.35,0.12-0.62,0.36-0.84c0.24-0.21,0.52-0.32,0.82-0.32c0.32,0,0.6,0.1,0.85,0.31
					C677.29,443.69,677.41,443.98,677.41,444.33z"/>
			</g>
			<path class="st0" d="M465.9,458.99l-0.27-24.84h1.67l0.27,24.84H465.9z"/>
			<polygon class="st0" points="171.57,458.99 170,458.99 169.74,434.15 171.32,434.15 			"/>
			<polygon class="st0" points="334.61,458.99 333.04,458.99 332.78,434.15 334.36,434.15 			"/>
			<path class="st0" d="M161.9,434.15v19.92c0,0.67-0.07,1.23-0.21,1.69c-0.14,0.46-0.38,0.83-0.69,1.11
				c-0.32,0.28-0.75,0.48-1.29,0.6c-0.54,0.12-1.2,0.18-1.97,0.18h-1.41c-1.27,0-2.24-0.27-2.91-0.81c-0.67-0.54-1-1.31-1.02-2.32
				c0-0.85-0.15-1.62-0.45-2.31c-0.31-0.69-0.7-1.28-1.21-1.77c-0.5-0.49-1.07-0.87-1.71-1.14c-0.64-0.27-1.31-0.4-2.02-0.4
				c-0.67,0-1.3,0.08-1.88,0.24c-0.58,0.17-1.14,0.43-1.66,0.79c-0.53,0.36-1.02,0.83-1.47,1.39c-0.46,0.56-0.88,1.25-1.28,2.06
				c-0.42,0.88-0.84,1.59-1.25,2.14c-0.41,0.55-0.84,0.98-1.28,1.3c-0.44,0.32-0.9,0.54-1.37,0.65c-0.47,0.11-0.98,0.17-1.51,0.17
				h-0.37c-1.74,0-3.02-0.45-3.83-1.35c-0.82-0.89-1.23-2.17-1.23-3.83c0.43-0.27,0.86-0.49,1.3-0.65c0.43-0.16,0.86-0.26,1.28-0.32
				l0.28-1.47c-0.79-0.01-1.56-0.08-2.31-0.2c-0.75-0.12-1.48-0.27-2.2-0.45c-0.71-0.18-1.42-0.37-2.12-0.57
				c-0.7-0.2-1.39-0.39-2.07-0.56c-0.68-0.18-1.35-0.32-2-0.44c-0.66-0.11-1.32-0.17-1.99-0.17c-0.35,0-0.71,0.02-1.09,0.07
				c-0.38,0.05-0.77,0.1-1.15,0.17c-0.39,0.07-0.76,0.15-1.13,0.25c-0.37,0.1-0.72,0.2-1.06,0.31v1.48
				c0.29-0.09,0.61-0.17,0.97-0.25c0.37-0.08,0.75-0.16,1.15-0.23c0.4-0.06,0.81-0.11,1.22-0.15c0.41-0.04,0.81-0.06,1.17-0.06
				c0.79,0,1.6,0.08,2.42,0.22c0.82,0.15,1.65,0.32,2.48,0.53c0.84,0.2,1.66,0.4,2.47,0.61c0.81,0.2,1.6,0.35,2.37,0.45v0.08
				c-0.93,0.37-1.79,0.79-2.6,1.26c-0.81,0.47-1.6,0.95-2.39,1.43c-0.78,0.49-1.58,0.96-2.38,1.42c-0.8,0.46-1.66,0.87-2.56,1.23
				c-0.91,0.36-1.89,0.65-2.93,0.87c-1.05,0.22-2.21,0.33-3.48,0.33h-0.76c-0.78,0-1.44-0.06-1.98-0.18
				c-0.54-0.12-0.99-0.3-1.32-0.55c-0.34-0.24-0.59-0.56-0.74-0.94c-0.15-0.39-0.23-0.85-0.23-1.38v-6.97h-1.55v6.97
				c0,1.08-0.31,1.85-0.94,2.33c-0.63,0.47-1.58,0.71-2.85,0.71h-1.77c-1.27,0-2.24-0.27-2.91-0.81c-0.67-0.54-1.01-1.31-1.02-2.32
				c0-0.85-0.15-1.62-0.46-2.31c-0.3-0.69-0.7-1.28-1.2-1.77c-0.5-0.49-1.07-0.87-1.71-1.14c-0.64-0.27-1.31-0.4-2.02-0.4
				c-0.66,0-1.29,0.08-1.88,0.24c-0.59,0.17-1.14,0.43-1.67,0.79c-0.52,0.36-1.01,0.83-1.47,1.39c-0.46,0.56-0.88,1.25-1.28,2.06
				c-0.42,0.88-0.84,1.59-1.25,2.14c-0.41,0.55-0.84,0.98-1.28,1.3c-0.44,0.32-0.9,0.54-1.37,0.65c-0.47,0.11-0.98,0.17-1.51,0.17
				h-0.37c-0.94,0-1.82-0.02-2.64-0.07c-0.82-0.05-1.57-0.1-2.24-0.18c-0.68-0.08-1.26-0.16-1.76-0.27c-0.5-0.1-0.89-0.22-1.17-0.34
				c0.8-0.51,1.51-1.06,2.13-1.64c0.62-0.58,1.14-1.16,1.55-1.73c0.42-0.57,0.74-1.12,0.95-1.66c0.22-0.53,0.32-1,0.32-1.43
				c0-0.82-0.45-1.47-1.35-1.97c-0.9-0.49-2.27-0.74-4.09-0.74c-1.37,0-2.8,0.09-4.29,0.26c-1.49,0.18-3,0.43-4.53,0.76v1.31
				c0.3,0.54,0.69,1.15,1.19,1.8c0.5,0.65,1.04,1.3,1.61,1.94c0.57,0.64,1.14,1.23,1.72,1.77c0.58,0.54,1.09,0.96,1.54,1.27
				c-1.66,0.61-4.15,0.91-7.48,0.91h-1.43c-0.78,0-1.44-0.06-1.98-0.18c-0.54-0.12-0.99-0.3-1.32-0.55
				c-0.34-0.24-0.59-0.56-0.74-0.94c-0.15-0.39-0.23-0.85-0.23-1.38v-6.97H54.2v6.97c0,1.08-0.31,1.85-0.94,2.33
				c-0.63,0.47-1.58,0.71-2.85,0.71H25.81c-0.51,0-0.94-0.06-1.3-0.17c-0.36-0.11-0.65-0.31-0.89-0.6c-0.23-0.28-0.4-0.66-0.51-1.14
				c-0.1-0.47-0.15-1.08-0.15-1.79v-9.79h-1.61v1.82c-1.74,0.22-3.23,0.54-4.47,0.95c-1.23,0.42-2.24,0.9-3.03,1.45
				c-0.79,0.55-1.37,1.16-1.74,1.82c-0.37,0.67-0.55,1.35-0.55,2.06c0,0.59,0.13,1.12,0.39,1.6c0.27,0.47,0.64,0.88,1.12,1.21
				c0.48,0.33,1.06,0.59,1.74,0.76c0.68,0.18,1.44,0.26,2.28,0.26c0.85,0,1.65-0.08,2.39-0.23c0.74-0.15,1.39-0.34,1.94-0.56
				c0,0.59,0.1,1.13,0.29,1.61c0.19,0.48,0.46,0.89,0.81,1.23c0.35,0.34,0.77,0.61,1.26,0.79c0.49,0.19,1.03,0.28,1.62,0.28h25.27
				c1.11,0,2.01-0.2,2.7-0.58c0.69-0.39,1.19-0.89,1.5-1.5h0.07c0.15,0.31,0.37,0.59,0.65,0.85c0.29,0.26,0.62,0.47,0.98,0.66
				c0.37,0.18,0.77,0.32,1.21,0.42c0.43,0.11,0.88,0.16,1.35,0.16h2.63c0.93,0,1.79-0.03,2.59-0.1c0.8-0.07,1.56-0.16,2.29-0.29
				c0.72-0.13,1.4-0.29,2.05-0.48c0.65-0.19,1.28-0.42,1.9-0.68c1.11,0.52,2.34,0.91,3.7,1.16c1.35,0.25,2.78,0.38,4.27,0.38h1.77
				c1.17,0,2.19-0.22,3.04-0.67c0.85-0.44,1.62-1.14,2.31-2.09c0.37,0.4,0.8,0.78,1.29,1.12c0.49,0.34,1.01,0.62,1.56,0.86
				c0.56,0.24,1.13,0.43,1.73,0.57c0.6,0.14,1.19,0.21,1.78,0.21c0.57,0,1.09-0.07,1.58-0.19c0.48-0.13,0.91-0.3,1.29-0.51
				c0.38-0.21,0.7-0.46,0.97-0.74c0.27-0.28,0.48-0.57,0.63-0.87h0.09c0.68,1.54,2.15,2.31,4.41,2.31h2.41c1.11,0,2.01-0.2,2.7-0.58
				c0.69-0.39,1.19-0.89,1.5-1.5h0.08c0.15,0.31,0.36,0.59,0.64,0.85c0.29,0.26,0.62,0.47,0.98,0.66c0.37,0.18,0.77,0.32,1.21,0.42
				c0.43,0.11,0.88,0.16,1.35,0.16h1.81c1.23,0,2.39-0.12,3.47-0.35c1.08-0.23,2.09-0.54,3.02-0.92c0.93-0.38,1.8-0.79,2.61-1.25
				c0.81-0.46,1.56-0.92,2.25-1.37c0.69-0.46,1.33-0.88,1.93-1.28c0.6-0.4,1.14-0.72,1.63-0.96c0.04,0.98,0.18,1.84,0.44,2.6
				c0.25,0.76,0.62,1.4,1.11,1.93c0.48,0.52,1.09,0.92,1.83,1.19c0.73,0.28,1.6,0.41,2.58,0.41h0.72c1.17,0,2.18-0.22,3.03-0.67
				c0.85-0.44,1.62-1.14,2.31-2.09c0.37,0.4,0.8,0.78,1.29,1.12c0.49,0.34,1.01,0.62,1.57,0.86c0.55,0.24,1.13,0.43,1.73,0.57
				c0.6,0.14,1.2,0.21,1.79,0.21c0.57,0,1.09-0.07,1.57-0.19c0.48-0.13,0.91-0.3,1.29-0.51c0.38-0.21,0.7-0.46,0.97-0.74
				c0.27-0.28,0.48-0.57,0.63-0.87h0.09c0.68,1.54,2.15,2.31,4.4,2.31h1.78c0.99,0,1.84-0.09,2.55-0.28
				c0.71-0.18,1.31-0.47,1.77-0.88c0.47-0.39,0.82-0.91,1.04-1.53c0.23-0.62,0.33-1.37,0.33-2.24v-20.13H161.9z M21.35,453.94
				c-0.42,0.19-1,0.36-1.72,0.51c-0.73,0.15-1.52,0.23-2.37,0.23c-1.38,0-2.41-0.23-3.09-0.7c-0.68-0.47-1.02-1.13-1.02-1.97
				c0-0.54,0.17-1.05,0.51-1.55c0.34-0.49,0.85-0.95,1.53-1.36c0.68-0.41,1.53-0.77,2.56-1.07c1.02-0.3,2.23-0.53,3.61-0.68V453.94z
				 M68.92,454.86c-0.57-0.49-1.12-1-1.64-1.55c-0.53-0.54-1.02-1.11-1.47-1.68c-0.46-0.57-0.85-1.13-1.2-1.66v-0.18
				c1.04-0.2,2.16-0.36,3.37-0.48c1.21-0.13,2.46-0.19,3.76-0.19c1.28,0,2.24,0.12,2.89,0.37s0.96,0.59,0.96,1.04
				c0,0.38-0.14,0.81-0.43,1.32c-0.28,0.51-0.66,1.03-1.13,1.56c-0.47,0.53-1,1.04-1.59,1.52c-0.59,0.49-1.21,0.89-1.84,1.21
				C70.04,455.76,69.49,455.34,68.92,454.86z M95.41,455.72c-0.17,0.43-0.42,0.78-0.73,1.07c-0.31,0.29-0.69,0.5-1.12,0.64
				c-0.43,0.14-0.91,0.22-1.43,0.22c-0.59,0-1.16-0.06-1.7-0.18c-0.54-0.12-1.05-0.29-1.54-0.51c-0.48-0.22-0.92-0.48-1.31-0.78
				c-0.39-0.3-0.73-0.62-1.02-0.97c0.67-1.64,1.45-2.84,2.35-3.61c0.9-0.77,1.84-1.15,2.81-1.15c0.56,0,1.08,0.09,1.55,0.26
				c0.47,0.18,0.89,0.43,1.25,0.75c0.36,0.32,0.64,0.71,0.84,1.17c0.21,0.46,0.31,0.98,0.31,1.55
				C95.67,454.78,95.58,455.29,95.41,455.72z M150.37,455.72c-0.17,0.43-0.42,0.78-0.73,1.07c-0.31,0.29-0.69,0.5-1.12,0.64
				c-0.43,0.14-0.91,0.22-1.43,0.22c-0.59,0-1.16-0.06-1.7-0.18c-0.54-0.12-1.06-0.29-1.54-0.51c-0.48-0.22-0.92-0.48-1.31-0.78
				c-0.4-0.3-0.74-0.62-1.02-0.97c0.67-1.64,1.45-2.84,2.35-3.61c0.9-0.77,1.84-1.15,2.81-1.15c0.55,0,1.07,0.09,1.54,0.26
				c0.47,0.18,0.89,0.43,1.25,0.75c0.36,0.32,0.64,0.71,0.85,1.17c0.2,0.46,0.31,0.98,0.31,1.55
				C150.62,454.78,150.54,455.29,150.37,455.72z"/>
			<path class="st0" d="M187.95,454.82c-0.21-1.08-0.58-2.07-1.13-2.98c-0.54-0.89-1.17-1.61-1.88-2.15
				c-0.71-0.54-1.55-0.8-2.53-0.8c-0.7,0-1.38,0.16-2.01,0.49c-0.64,0.33-1.21,0.75-1.7,1.28c-0.49,0.53-0.88,1.12-1.17,1.78
				c-0.29,0.66-0.43,1.32-0.43,1.99c0,0.69,0.16,1.34,0.48,1.93c0.32,0.58,0.75,1.09,1.29,1.51c0.54,0.43,1.16,0.76,1.87,1
				c0.71,0.23,1.45,0.35,2.22,0.35c0.67,0,1.33-0.06,1.99-0.17c0.66-0.11,1.25-0.28,1.77-0.48c-0.08,1.19-0.27,2.2-0.55,3.01
				c-0.29,0.82-0.69,1.48-1.22,1.98c-0.53,0.5-1.2,0.86-1.99,1.09c-0.8,0.23-1.75,0.34-2.86,0.34c-0.48,0-0.97-0.01-1.46-0.04
				c-0.49-0.03-0.96-0.07-1.41-0.13c-0.45-0.06-0.87-0.13-1.28-0.21c-0.4-0.08-0.76-0.16-1.06-0.26v1.47
				c0.59,0.22,1.35,0.39,2.29,0.53c0.93,0.14,1.9,0.21,2.92,0.21c1.32,0,2.49-0.16,3.51-0.48c1.02-0.32,1.87-0.83,2.56-1.52
				c0.69-0.69,1.22-1.57,1.57-2.64c0.36-1.08,0.54-2.38,0.54-3.89C188.26,456.96,188.16,455.9,187.95,454.82z M183.17,457.65
				c-0.63,0-1.21-0.08-1.74-0.24c-0.53-0.16-0.99-0.39-1.37-0.68c-0.39-0.3-0.68-0.65-0.89-1.06c-0.21-0.41-0.31-0.87-0.31-1.39
				c0-0.5,0.1-0.99,0.29-1.45c0.19-0.46,0.45-0.87,0.77-1.22c0.32-0.35,0.69-0.62,1.11-0.84c0.42-0.21,0.86-0.31,1.33-0.31
				c0.52,0,1.02,0.17,1.52,0.52s0.93,0.81,1.32,1.41s0.71,1.3,0.96,2.11c0.25,0.81,0.39,1.67,0.42,2.59
				C185.66,457.46,184.53,457.65,183.17,457.65z"/>
			<path class="st0" d="M236.81,458.42c0,0.25,0.11,0.45,0.32,0.59c0.22,0.14,0.54,0.22,0.97,0.22v-1.57
				C237.24,457.65,236.81,457.9,236.81,458.42z"/>
			<path class="st0" d="M236.81,458.42c0,0.25,0.11,0.45,0.32,0.59c0.22,0.14,0.54,0.22,0.97,0.22v-1.57
				C237.24,457.65,236.81,457.9,236.81,458.42z"/>
			<path class="st0" d="M324.94,434.15v19.92c0,0.67-0.07,1.23-0.22,1.69c-0.14,0.46-0.37,0.83-0.69,1.11
				c-0.32,0.28-0.75,0.48-1.29,0.6c-0.54,0.12-1.19,0.18-1.97,0.18h-1.41c-0.78,0-1.44-0.06-1.98-0.18
				c-0.54-0.12-0.99-0.3-1.32-0.55c-0.34-0.24-0.59-0.56-0.74-0.94c-0.15-0.39-0.23-0.85-0.23-1.38v-6.97h-1.55v6.97
				c0,1.08-0.31,1.85-0.94,2.33c-0.63,0.47-1.58,0.71-2.85,0.71h-1.77c-0.72,0-1.31,0-1.8-0.01c-0.48,0-0.89-0.01-1.22-0.02
				c-0.33-0.01-0.62-0.03-0.85-0.04c-0.23-0.02-0.46-0.04-0.69-0.08c0.81-0.48,1.41-1.05,1.78-1.7c0.37-0.65,0.55-1.36,0.55-2.12
				c0-0.75-0.15-1.51-0.46-2.28c-0.3-0.77-0.71-1.46-1.23-2.09c-0.59-0.74-1.24-1.31-1.93-1.71c-0.7-0.41-1.36-0.62-1.99-0.62
				c-0.62,0-1.23,0.17-1.83,0.52c-0.6,0.35-1.13,0.81-1.6,1.37c-0.47,0.56-0.85,1.2-1.14,1.91c-0.29,0.71-0.44,1.43-0.44,2.16
				c0,0.47,0.1,0.93,0.29,1.36c0.19,0.44,0.47,0.85,0.83,1.23c0.36,0.38,0.79,0.73,1.3,1.05c0.51,0.32,1.07,0.61,1.69,0.85
				l-0.04,0.12c-0.27,0.02-0.72,0.04-1.34,0.07c-0.62,0.02-1.39,0.03-2.29,0.03h-3.28c-1.48,0-2.56-0.24-3.25-0.71
				c-0.69-0.48-1.03-1.25-1.03-2.33v-5.71h-1.55v4.95c0,1.32-0.31,2.29-0.93,2.89c-0.62,0.61-1.61,0.91-2.98,0.91
				c-1.47,0-2.59-0.31-3.36-0.93c-0.77-0.62-1.16-1.63-1.16-3.01v-3.54h-1.56v3.55c0,0.69-0.1,1.28-0.3,1.78
				c-0.2,0.5-0.48,0.9-0.84,1.22c-0.37,0.31-0.8,0.55-1.31,0.7c-0.51,0.15-1.08,0.23-1.7,0.23c-1.43,0-2.5-0.32-3.21-0.96
				c-0.71-0.64-1.07-1.62-1.07-2.96v-3.57h-1.55v3.7c0,1.38-0.35,2.35-1.05,2.93c-0.69,0.58-1.74,0.86-3.12,0.86h-1.41
				c-0.77,0-1.44-0.06-1.98-0.18c-0.54-0.12-0.98-0.3-1.32-0.55c-0.34-0.24-0.58-0.56-0.74-0.94c-0.15-0.39-0.23-0.85-0.23-1.38
				v-6.97h-1.55v6.97c0,1.08-0.31,1.85-0.94,2.33c-0.63,0.47-1.58,0.71-2.85,0.71H238.1v1.57h13.46c1.11,0,2.01-0.2,2.7-0.58
				c0.69-0.39,1.19-0.89,1.5-1.5h0.08c0.15,0.31,0.36,0.59,0.65,0.85c0.28,0.26,0.61,0.47,0.98,0.66c0.37,0.18,0.77,0.32,1.2,0.42
				c0.43,0.11,0.88,0.16,1.35,0.16h2.74c1.09,0,2-0.19,2.72-0.57c0.73-0.38,1.3-0.97,1.72-1.79h0.08c0.21,0.43,0.48,0.79,0.81,1.09
				c0.33,0.3,0.72,0.54,1.16,0.73c0.44,0.18,0.91,0.32,1.42,0.41c0.51,0.08,1.06,0.13,1.64,0.13c1.19,0,2.16-0.21,2.93-0.63
				c0.77-0.42,1.41-1.04,1.93-1.86h0.08c0.43,0.76,1.07,1.36,1.9,1.81c0.84,0.45,1.95,0.68,3.34,0.68c1.05,0,1.97-0.18,2.75-0.53
				c0.78-0.35,1.41-0.87,1.88-1.56h0.11c0.32,0.65,0.87,1.16,1.64,1.53c0.77,0.37,1.72,0.56,2.85,0.56h3.42
				c1.42,0,2.67-0.07,3.75-0.21c1.08-0.14,1.97-0.34,2.67-0.62c0.8,0.29,1.68,0.49,2.62,0.62c0.95,0.13,2.01,0.2,3.2,0.2h2.65
				c1.11,0,2.01-0.2,2.7-0.58c0.69-0.39,1.19-0.89,1.5-1.5h0.07c0.15,0.31,0.37,0.59,0.65,0.85c0.29,0.26,0.62,0.47,0.98,0.66
				c0.37,0.18,0.77,0.32,1.21,0.42c0.43,0.11,0.88,0.16,1.35,0.16h2.31c0.99,0,1.84-0.09,2.56-0.28c0.71-0.18,1.31-0.47,1.77-0.88
				c0.47-0.39,0.82-0.91,1.04-1.53c0.22-0.62,0.33-1.37,0.33-2.24v-20.13H324.94z M301.45,457.12c-1.64-0.64-2.85-1.33-3.61-2.07
				c-0.77-0.73-1.15-1.46-1.15-2.19c0-0.49,0.1-1,0.31-1.5c0.2-0.51,0.46-0.97,0.77-1.39c0.31-0.42,0.67-0.77,1.06-1.03
				c0.39-0.26,0.77-0.39,1.14-0.39c0.48,0,0.97,0.16,1.47,0.48c0.5,0.32,0.95,0.73,1.36,1.23c0.4,0.5,0.74,1.06,1,1.66
				c0.26,0.61,0.38,1.19,0.38,1.75c0,0.77-0.24,1.45-0.73,2.06C302.97,456.34,302.3,456.8,301.45,457.12z"/>
			<path class="st0" d="M236.81,458.42c0-0.52,0.43-0.77,1.3-0.77H226.7c-0.51,0-0.94-0.06-1.3-0.17c-0.36-0.11-0.65-0.31-0.89-0.6
				c-0.23-0.28-0.4-0.66-0.51-1.14c-0.1-0.47-0.15-1.08-0.15-1.79v-9.79h-1.61v1.82c-1.74,0.22-3.23,0.54-4.46,0.95
				c-1.23,0.42-2.25,0.9-3.04,1.45c-0.79,0.55-1.37,1.16-1.74,1.82c-0.37,0.67-0.55,1.35-0.55,2.06c0,0.59,0.13,1.12,0.4,1.6
				c0.26,0.47,0.64,0.88,1.12,1.21c0.48,0.33,1.06,0.59,1.74,0.76c0.68,0.18,1.44,0.26,2.28,0.26c0.85,0,1.65-0.08,2.39-0.23
				c0.74-0.15,1.39-0.34,1.94-0.56c0,0.59,0.09,1.13,0.29,1.61c0.19,0.48,0.46,0.89,0.81,1.23c0.35,0.34,0.77,0.61,1.26,0.79
				c0.49,0.19,1.03,0.28,1.62,0.28h11.81c-0.43,0-0.76-0.08-0.97-0.22C236.91,458.87,236.81,458.67,236.81,458.42z M222.24,453.94
				c-0.42,0.19-1,0.36-1.72,0.51c-0.73,0.15-1.52,0.23-2.37,0.23c-1.38,0-2.41-0.23-3.09-0.7c-0.68-0.47-1.02-1.13-1.02-1.97
				c0-0.54,0.17-1.05,0.51-1.55c0.34-0.49,0.85-0.95,1.53-1.36c0.68-0.41,1.53-0.77,2.55-1.07c1.02-0.3,2.23-0.53,3.61-0.68V453.94z
				"/>
			<path class="st0" d="M420.56,451.39c-0.31-0.76-0.71-1.46-1.23-2.08c-0.59-0.74-1.23-1.31-1.93-1.71
				c-0.7-0.41-1.36-0.62-1.99-0.62c-0.62,0-1.23,0.17-1.83,0.52c-0.6,0.35-1.13,0.81-1.6,1.37c-0.47,0.56-0.85,1.2-1.14,1.91
				c-0.29,0.71-0.43,1.43-0.43,2.16c0,0.94,0.36,1.78,1.08,2.53c0.71,0.75,1.67,1.39,2.87,1.94l-0.04,0.11
				c-0.28,0.02-0.6,0.04-0.95,0.06c-0.35,0.02-0.72,0.03-1.1,0.03c-0.38,0.01-0.77,0.01-1.15,0.02c-0.39,0-0.74,0.01-1.08,0.01
				h-2.48c-0.78,0-1.44-0.06-1.98-0.18c-0.54-0.12-0.99-0.3-1.32-0.55c-0.34-0.24-0.59-0.56-0.74-0.94
				c-0.15-0.39-0.23-0.85-0.23-1.38v-6.97h-1.56v6.97c0,1.08-0.31,1.85-0.94,2.33c-0.63,0.47-1.58,0.71-2.85,0.71h-24.59
				c-0.5,0-0.93-0.06-1.3-0.17c-0.36-0.11-0.65-0.31-0.89-0.6c-0.23-0.28-0.4-0.66-0.51-1.14c-0.11-0.47-0.16-1.08-0.16-1.79v-9.79
				h-1.61v1.82c-1.74,0.22-3.23,0.54-4.46,0.95c-1.23,0.42-2.25,0.9-3.04,1.45c-0.79,0.55-1.37,1.16-1.74,1.82
				c-0.37,0.67-0.55,1.35-0.55,2.06c0,0.59,0.13,1.12,0.4,1.6c0.27,0.47,0.64,0.88,1.12,1.21c0.48,0.33,1.06,0.59,1.74,0.76
				c0.68,0.18,1.44,0.26,2.28,0.26c0.85,0,1.65-0.08,2.39-0.23c0.74-0.15,1.39-0.34,1.94-0.56c0,0.59,0.09,1.13,0.29,1.61
				c0.19,0.48,0.46,0.89,0.81,1.23c0.35,0.34,0.77,0.61,1.26,0.79c0.49,0.19,1.02,0.28,1.62,0.28h25.27c1.11,0,2.01-0.2,2.7-0.58
				c0.69-0.39,1.19-0.89,1.5-1.5h0.07c0.15,0.31,0.37,0.59,0.65,0.85c0.29,0.26,0.61,0.47,0.98,0.66c0.37,0.18,0.77,0.32,1.21,0.42
				c0.43,0.11,0.88,0.16,1.35,0.16h4.82c1.7,0,3.16-0.13,4.36-0.39c1.21-0.26,2.19-0.63,2.95-1.12c0.77-0.48,1.33-1.07,1.69-1.76
				c0.36-0.69,0.54-1.47,0.54-2.34C421.01,452.9,420.86,452.16,420.56,451.39z M368.87,453.94c-0.42,0.19-0.99,0.36-1.72,0.51
				c-0.73,0.15-1.52,0.23-2.37,0.23c-1.39,0-2.41-0.23-3.09-0.7c-0.68-0.47-1.02-1.13-1.02-1.97c0-0.54,0.17-1.05,0.51-1.55
				c0.34-0.49,0.85-0.95,1.53-1.36c0.68-0.41,1.53-0.77,2.55-1.07c1.02-0.3,2.23-0.53,3.61-0.68V453.94z M419.25,454.8
				c-0.14,0.36-0.33,0.68-0.58,0.98c-0.24,0.3-0.53,0.55-0.87,0.78c-0.34,0.23-0.7,0.41-1.08,0.54c-1.64-0.71-2.85-1.42-3.61-2.12
				c-0.77-0.7-1.15-1.41-1.15-2.13c0-0.49,0.1-1,0.31-1.5c0.21-0.51,0.46-0.97,0.78-1.39c0.31-0.42,0.67-0.77,1.06-1.03
				c0.39-0.26,0.77-0.39,1.14-0.39c0.48,0,0.97,0.16,1.47,0.48c0.5,0.32,0.96,0.73,1.36,1.23c0.41,0.5,0.74,1.06,1,1.66
				c0.26,0.61,0.39,1.19,0.39,1.75C419.46,454.08,419.39,454.45,419.25,454.8z"/>
			<path class="st0" d="M458.04,434.15v19.92c0,0.67-0.07,1.23-0.21,1.69c-0.14,0.46-0.38,0.83-0.7,1.11
				c-0.32,0.28-0.75,0.48-1.29,0.6c-0.54,0.12-1.19,0.18-1.97,0.18h-1.41c-0.93,0-1.82-0.02-2.63-0.07
				c-0.82-0.05-1.57-0.1-2.24-0.18c-0.68-0.08-1.26-0.16-1.76-0.27c-0.5-0.1-0.89-0.22-1.18-0.34c0.8-0.51,1.52-1.06,2.13-1.64
				c0.62-0.58,1.14-1.16,1.55-1.73c0.42-0.57,0.74-1.12,0.95-1.66c0.22-0.53,0.32-1,0.32-1.43c0-0.82-0.45-1.47-1.35-1.97
				c-0.9-0.49-2.26-0.74-4.09-0.74c-1.37,0-2.8,0.09-4.29,0.26c-1.49,0.18-3,0.43-4.53,0.76v1.31c0.3,0.54,0.69,1.15,1.2,1.8
				c0.5,0.65,1.03,1.3,1.6,1.94c0.57,0.64,1.15,1.23,1.72,1.77c0.58,0.54,1.09,0.96,1.54,1.27c-1.66,0.61-4.15,0.91-7.48,0.91h-1.43
				c-0.79,0-1.45-0.06-1.98-0.16c-0.53-0.11-0.96-0.31-1.28-0.61c-0.32-0.29-0.55-0.7-0.69-1.23c-0.14-0.53-0.21-1.2-0.21-2.03
				v-19.46h-1.55v20.43c0,1.53,0.43,2.69,1.29,3.47c0.86,0.78,2.21,1.17,4.05,1.17h2.11c0.93,0,1.79-0.03,2.6-0.1
				c0.8-0.07,1.56-0.16,2.29-0.29c0.72-0.13,1.4-0.29,2.05-0.48c0.65-0.19,1.28-0.42,1.9-0.68c1.11,0.52,2.34,0.91,3.7,1.16
				c1.35,0.25,2.78,0.38,4.27,0.38h2.85c0.99,0,1.84-0.09,2.55-0.28c0.72-0.18,1.31-0.47,1.78-0.88c0.46-0.39,0.81-0.91,1.04-1.53
				c0.22-0.62,0.33-1.37,0.33-2.24v-20.13H458.04z M441.4,454.86c-0.57-0.49-1.12-1-1.64-1.55c-0.53-0.54-1.02-1.11-1.47-1.68
				c-0.46-0.57-0.86-1.13-1.2-1.66v-0.18c1.04-0.2,2.16-0.36,3.37-0.48c1.21-0.13,2.47-0.19,3.76-0.19c1.28,0,2.24,0.12,2.89,0.37
				c0.64,0.24,0.96,0.59,0.96,1.04c0,0.38-0.14,0.81-0.43,1.32c-0.28,0.51-0.66,1.03-1.13,1.56c-0.47,0.53-1,1.04-1.59,1.52
				c-0.59,0.49-1.2,0.89-1.84,1.21C442.53,455.76,441.96,455.34,441.4,454.86z"/>
			<path class="st0" d="M790.8,434.15v20.13c0,0.87-0.11,1.62-0.33,2.24c-0.23,0.62-0.57,1.14-1.04,1.53
				c-0.47,0.4-1.06,0.69-1.78,0.88c-0.71,0.19-1.57,0.28-2.55,0.28h-1.79c-0.99,0-1.85-0.14-2.58-0.41
				c-0.74-0.27-1.35-0.67-1.84-1.19c-0.49-0.53-0.86-1.17-1.11-1.93c-0.25-0.76-0.4-1.62-0.44-2.6c-0.49,0.24-1.04,0.56-1.63,0.96
				c-0.59,0.4-1.23,0.82-1.93,1.28c-0.69,0.45-1.44,0.91-2.25,1.37c-0.81,0.46-1.68,0.88-2.61,1.25c-0.93,0.38-1.94,0.69-3.02,0.92
				s-2.24,0.35-3.47,0.35h-1.65c-0.39,0-0.77-0.05-1.15-0.15c-0.38-0.1-0.75-0.24-1.1-0.44c-0.35-0.2-0.67-0.45-0.96-0.76
				c-0.28-0.31-0.52-0.68-0.7-1.11h-0.09c-0.23,0.45-0.5,0.84-0.82,1.16c-0.33,0.32-0.74,0.6-1.24,0.81c-0.5,0.21-1.1,0.37-1.8,0.46
				c-0.7,0.1-1.54,0.15-2.52,0.15c-0.78,0-1.63-0.03-2.57-0.09c-0.93-0.07-1.85-0.15-2.75-0.26l-0.69-1.57
				c0.43,0.05,0.89,0.1,1.39,0.15c0.49,0.04,1,0.08,1.51,0.12c0.51,0.03,1.02,0.06,1.52,0.07c0.5,0.02,0.97,0.02,1.42,0.02
				c1.01,0,1.86-0.05,2.55-0.15c0.69-0.1,1.25-0.26,1.68-0.46s0.73-0.47,0.92-0.79c0.19-0.31,0.28-0.69,0.28-1.13
				c0-0.74-0.25-1.99-0.77-3.73c-0.51-1.75-1.28-4.04-2.31-6.88h1.74c0.24,0.73,0.48,1.46,0.71,2.19c0.23,0.73,0.46,1.47,0.7,2.22
				c0.23,0.76,0.47,1.53,0.71,2.32c0.24,0.79,0.5,1.62,0.79,2.47c0.26,0.77,0.52,1.41,0.77,1.91c0.26,0.49,0.55,0.88,0.88,1.17
				c0.32,0.29,0.7,0.48,1.12,0.59c0.42,0.11,0.92,0.16,1.5,0.16h0.76c1.27,0,2.43-0.11,3.48-0.33c1.05-0.22,2.03-0.51,2.94-0.87
				c0.91-0.36,1.76-0.77,2.56-1.23c0.8-0.46,1.59-0.93,2.38-1.42c0.78-0.48,1.58-0.96,2.39-1.43s1.68-0.89,2.6-1.26v-0.08
				c-0.77-0.1-1.55-0.25-2.37-0.45c-0.81-0.2-1.64-0.4-2.47-0.61c-0.84-0.2-1.66-0.38-2.48-0.53c-0.82-0.15-1.62-0.22-2.41-0.22
				c-0.37,0-0.76,0.02-1.17,0.06c-0.42,0.04-0.82,0.09-1.23,0.15c-0.4,0.07-0.78,0.14-1.15,0.23c-0.37,0.08-0.69,0.16-0.97,0.25
				v-1.48c0.33-0.11,0.68-0.21,1.05-0.31c0.37-0.1,0.75-0.18,1.13-0.25c0.39-0.07,0.77-0.13,1.15-0.17
				c0.39-0.04,0.75-0.07,1.09-0.07c0.67,0,1.33,0.06,1.99,0.17c0.66,0.12,1.33,0.26,2.01,0.44c0.68,0.17,1.37,0.36,2.07,0.56
				c0.69,0.2,1.4,0.39,2.12,0.57c0.72,0.18,1.45,0.33,2.19,0.45c0.75,0.12,1.52,0.19,2.31,0.2l-0.28,1.47
				c-0.42,0.06-0.85,0.16-1.28,0.32c-0.43,0.16-0.86,0.38-1.3,0.65c0,1.66,0.41,2.94,1.22,3.83c0.82,0.9,2.09,1.35,3.84,1.35h1.4
				c0.78,0,1.44-0.06,1.97-0.18c0.54-0.12,0.97-0.32,1.29-0.6c0.32-0.28,0.55-0.65,0.69-1.11c0.14-0.46,0.21-1.02,0.21-1.69v-19.92
				H790.8z"/>
			<path class="st0" d="M517.72,447.63v6.03c0,0.78-0.16,1.43-0.48,1.96c-0.32,0.53-0.89,0.95-1.7,1.27
				c-0.81,0.32-1.9,0.54-3.28,0.68c-1.38,0.14-3.11,0.2-5.21,0.2c-1.81,0-3.37-0.03-4.66-0.09c-1.3-0.06-2.39-0.14-3.3-0.25
				c-0.9-0.11-1.64-0.24-2.21-0.41c-0.58-0.16-1.04-0.35-1.38-0.56c-0.54-0.31-0.97-0.74-1.29-1.29c-0.31-0.54-0.47-1.23-0.47-2.07
				c0-0.56,0.05-1.09,0.14-1.59c0.09-0.5,0.21-0.95,0.34-1.36h-1.5c-0.18,0.49-0.31,1.03-0.4,1.61c-0.09,0.58-0.14,1.12-0.14,1.64
				c0,1.01,0.21,1.87,0.62,2.58c0.41,0.7,0.99,1.29,1.71,1.75c0.41,0.25,0.91,0.48,1.51,0.68c0.6,0.2,1.36,0.38,2.29,0.52
				c0.93,0.14,2.05,0.25,3.37,0.32c1.32,0.07,2.91,0.1,4.76,0.1c2.52,0,4.61-0.11,6.26-0.32c1.65-0.22,2.97-0.56,3.94-1.03
				c0.97-0.47,1.66-1.08,2.05-1.81s0.58-1.62,0.58-2.64v-5.9H517.72z"/>
			<path class="st0" d="M581.29,447.63v6.25c0,0.88-0.13,1.66-0.39,2.32c-0.26,0.67-0.63,1.23-1.11,1.67
				c-0.48,0.45-1.07,0.79-1.74,1.01c-0.68,0.23-1.44,0.34-2.28,0.34c-1.39,0-2.51-0.23-3.34-0.68c-0.83-0.46-1.46-1.06-1.9-1.81
				h-0.08c-0.52,0.82-1.16,1.44-1.93,1.86c-0.77,0.42-1.74,0.63-2.93,0.63c-0.58,0-1.13-0.05-1.64-0.13
				c-0.51-0.09-0.99-0.23-1.43-0.41c-0.44-0.19-0.82-0.43-1.16-0.73c-0.33-0.3-0.61-0.66-0.81-1.09h-0.08
				c-0.42,0.82-1,1.42-1.72,1.79c-0.73,0.38-1.63,0.57-2.72,0.57h-25.03c-1.84,0-3.19-0.39-4.05-1.17
				c-0.86-0.78-1.29-1.93-1.29-3.47v-20.43h1.55v19.46c0,0.83,0.07,1.51,0.21,2.03c0.14,0.52,0.36,0.93,0.68,1.23
				c0.32,0.3,0.75,0.5,1.28,0.61c0.53,0.11,1.18,0.16,1.98,0.16h24.22c1.38,0,2.42-0.29,3.12-0.86c0.7-0.57,1.05-1.55,1.05-2.93
				v-3.7h1.55v3.57c0,1.33,0.36,2.32,1.07,2.96c0.71,0.64,1.78,0.96,3.21,0.96c0.63,0,1.2-0.08,1.7-0.23
				c0.51-0.15,0.94-0.39,1.31-0.7c0.36-0.32,0.64-0.72,0.84-1.22c0.2-0.5,0.3-1.09,0.3-1.78v-3.55h1.55v3.54
				c0,1.39,0.39,2.39,1.16,3.01c0.77,0.62,1.89,0.93,3.36,0.93c1.37,0,2.36-0.31,2.98-0.91c0.62-0.61,0.93-1.57,0.93-2.89v-6.21
				H581.29z"/>
			<path class="st0" d="M601.31,458.02c0,1.52-0.17,2.81-0.52,3.89c-0.35,1.08-0.84,1.96-1.47,2.64c-0.63,0.69-1.38,1.19-2.26,1.52
				c-0.88,0.32-1.84,0.48-2.89,0.48c-0.78,0-1.54-0.07-2.28-0.21c-0.74-0.14-1.41-0.31-2-0.53v-1.47c0.63,0.19,1.28,0.35,1.93,0.46
				c0.66,0.12,1.33,0.17,2.01,0.17c0.91,0,1.73-0.12,2.45-0.35c0.72-0.23,1.33-0.62,1.84-1.17c0.5-0.55,0.88-1.27,1.15-2.16
				c0.27-0.89,0.4-1.98,0.4-3.28c0-1.41-0.2-2.9-0.61-4.48c-0.41-1.58-0.98-3.13-1.7-4.64h1.85c0.32,0.71,0.61,1.45,0.87,2.23
				c0.26,0.77,0.48,1.55,0.66,2.34c0.18,0.78,0.32,1.56,0.42,2.34C601.26,456.59,601.31,457.33,601.31,458.02z"/>
			<path class="st0" d="M619.14,454.47c0,1.68-0.58,2.92-1.75,3.7c-1.16,0.79-2.88,1.18-5.16,1.18c-0.73,0-1.56-0.03-2.51-0.09
				c-0.94-0.07-1.85-0.15-2.73-0.26l-0.68-1.57c0.43,0.05,0.9,0.1,1.4,0.15s1.01,0.08,1.53,0.12c0.52,0.03,1.01,0.06,1.5,0.07
				c0.49,0.02,0.93,0.02,1.32,0.02c1,0,1.85-0.06,2.55-0.19c0.7-0.12,1.27-0.32,1.71-0.58c0.44-0.26,0.76-0.6,0.95-1.02
				c0.2-0.42,0.3-0.93,0.3-1.51c0-0.62-0.11-1.29-0.32-2s-0.56-1.47-1.02-2.3c-0.46-0.82-1.05-1.7-1.77-2.64
				c-0.72-0.94-1.58-1.97-2.58-3.07h1.91c0.98,1.06,1.8,2.06,2.47,2.99c0.67,0.93,1.22,1.82,1.65,2.64c0.43,0.83,0.73,1.6,0.93,2.33
				C619.04,453.14,619.14,453.82,619.14,454.47z"/>
			<path class="st0" d="M635.78,454.82c-0.21-1.08-0.59-2.07-1.13-2.98c-0.54-0.89-1.17-1.61-1.88-2.15
				c-0.71-0.54-1.55-0.8-2.53-0.8c-0.7,0-1.38,0.16-2.01,0.49c-0.64,0.33-1.21,0.75-1.7,1.28c-0.49,0.53-0.88,1.12-1.17,1.78
				c-0.29,0.66-0.43,1.32-0.43,1.99c0,0.69,0.16,1.34,0.48,1.93c0.32,0.58,0.75,1.09,1.29,1.51c0.54,0.43,1.16,0.76,1.87,1
				c0.71,0.23,1.45,0.35,2.21,0.35c0.67,0,1.33-0.06,1.99-0.17c0.66-0.11,1.25-0.28,1.77-0.48c-0.08,1.19-0.27,2.2-0.55,3.01
				c-0.29,0.82-0.69,1.48-1.22,1.98c-0.54,0.5-1.2,0.86-1.99,1.09c-0.8,0.23-1.75,0.34-2.86,0.34c-0.48,0-0.97-0.01-1.46-0.04
				c-0.49-0.03-0.96-0.07-1.41-0.13c-0.45-0.06-0.87-0.13-1.28-0.21c-0.4-0.08-0.76-0.16-1.07-0.26v1.47
				c0.6,0.22,1.36,0.39,2.29,0.53c0.93,0.14,1.9,0.21,2.92,0.21c1.32,0,2.49-0.16,3.51-0.48c1.02-0.32,1.87-0.83,2.56-1.52
				c0.69-0.69,1.22-1.57,1.57-2.64c0.36-1.08,0.54-2.38,0.54-3.89C636.09,456.96,635.99,455.9,635.78,454.82z M631,457.65
				c-0.63,0-1.21-0.08-1.74-0.24c-0.53-0.16-0.99-0.39-1.37-0.68c-0.39-0.3-0.68-0.65-0.89-1.06c-0.21-0.41-0.31-0.87-0.31-1.39
				c0-0.5,0.09-0.99,0.29-1.45c0.19-0.46,0.45-0.87,0.77-1.22c0.32-0.35,0.69-0.62,1.11-0.84c0.42-0.21,0.86-0.31,1.33-0.31
				c0.52,0,1.02,0.17,1.52,0.52c0.49,0.34,0.93,0.81,1.32,1.41c0.39,0.6,0.71,1.3,0.96,2.11c0.25,0.81,0.39,1.67,0.42,2.59
				C633.49,457.46,632.36,457.65,631,457.65z"/>
			<path class="st0" d="M687.36,447.63v5.9c0,1.02-0.19,1.91-0.58,2.64c-0.39,0.74-1.08,1.34-2.05,1.81
				c-0.98,0.47-2.29,0.81-3.94,1.03c-1.65,0.22-3.74,0.32-6.26,0.32c-1.85,0-3.44-0.03-4.76-0.1c-1.32-0.07-2.45-0.18-3.37-0.32
				s-1.69-0.31-2.29-0.52c-0.6-0.2-1.1-0.43-1.51-0.68c-0.73-0.46-1.3-1.04-1.71-1.75c-0.41-0.7-0.62-1.56-0.62-2.58
				c0-0.52,0.05-1.06,0.14-1.64c0.09-0.58,0.23-1.12,0.4-1.61h1.5c-0.14,0.4-0.25,0.86-0.34,1.36c-0.09,0.5-0.14,1.03-0.14,1.59
				c0,0.84,0.16,1.53,0.47,2.07c0.31,0.54,0.74,0.97,1.29,1.29c0.34,0.21,0.81,0.39,1.38,0.56c0.57,0.16,1.31,0.3,2.21,0.41
				c0.9,0.11,2,0.2,3.3,0.25c1.3,0.06,2.85,0.09,4.66,0.09c2.1,0,3.84-0.07,5.21-0.2c1.38-0.14,2.47-0.36,3.28-0.68
				c0.81-0.32,1.38-0.74,1.7-1.27c0.32-0.53,0.48-1.18,0.48-1.96v-6.03H687.36z"/>
			<path class="st0" d="M739.31,452.07c-0.3-0.65-0.69-1.21-1.19-1.68c-0.5-0.47-1.08-0.84-1.72-1.1c-0.65-0.26-1.32-0.39-2.03-0.39
				c-0.67,0-1.29,0.08-1.88,0.24c-0.59,0.17-1.14,0.43-1.67,0.78c-0.53,0.36-1.01,0.82-1.47,1.39c-0.46,0.57-0.88,1.26-1.28,2.08
				c-0.42,0.88-0.84,1.59-1.25,2.14c-0.41,0.55-0.84,0.98-1.27,1.3c-0.43,0.32-0.88,0.54-1.33,0.65c-0.46,0.11-0.94,0.17-1.44,0.17
				h-23.29c-0.79,0-1.45-0.06-1.98-0.16c-0.53-0.11-0.96-0.31-1.28-0.61c-0.32-0.29-0.55-0.7-0.69-1.23c-0.14-0.53-0.2-1.2-0.2-2.03
				v-19.46h-1.55v20.43c0,1.53,0.43,2.69,1.29,3.47c0.86,0.78,2.2,1.17,4.04,1.17h23.53c1.2,0,2.23-0.24,3.1-0.72
				c0.87-0.48,1.62-1.16,2.25-2.03c0.37,0.4,0.8,0.78,1.29,1.12c0.48,0.34,1,0.62,1.55,0.86c0.55,0.24,1.12,0.43,1.71,0.57
				c0.59,0.14,1.18,0.21,1.77,0.21c0.88,0,1.65-0.14,2.32-0.41c0.67-0.27,1.24-0.64,1.7-1.09c0.46-0.46,0.81-1,1.05-1.6
				c0.23-0.61,0.35-1.25,0.35-1.93C739.76,453.42,739.61,452.72,739.31,452.07z M737.72,455.71c-0.17,0.43-0.42,0.79-0.73,1.08
				c-0.31,0.29-0.69,0.51-1.12,0.65c-0.44,0.14-0.91,0.22-1.43,0.22c-0.58,0-1.15-0.06-1.7-0.18c-0.55-0.12-1.07-0.29-1.54-0.51
				c-0.48-0.22-0.92-0.48-1.31-0.78c-0.39-0.3-0.74-0.62-1.02-0.97c0.67-1.64,1.45-2.84,2.35-3.61s1.84-1.15,2.81-1.15
				c0.55,0,1.07,0.09,1.54,0.26c0.48,0.18,0.89,0.43,1.25,0.75c0.36,0.32,0.63,0.71,0.84,1.17c0.21,0.46,0.31,0.98,0.31,1.55
				C737.98,454.77,737.89,455.27,737.72,455.71z"/>
			<polygon class="st0" points="589.54,458.99 587.97,458.99 587.72,434.15 589.29,434.15 			"/>
		</g>
	</g>
</g>
</svg>
